<?xml version="1.0" encoding="UTF-8" standalone="no"?>
<!-- Created with Inkscape (http://www.inkscape.org/) -->

<svg
   xmlns:dc="http://purl.org/dc/elements/1.1/"
   xmlns:cc="http://creativecommons.org/ns#"
   xmlns:rdf="http://www.w3.org/1999/02/22-rdf-syntax-ns#"
   xmlns:svg="http://www.w3.org/2000/svg"
   xmlns="http://www.w3.org/2000/svg"
   version="1.1"
   width="750"
   height="600"
   viewBox="0 0 750 600"
   id="Layer_1"
   xml:space="preserve"
   style="overflow:visible"><metadata
     id="metadata24"><rdf:RDF><cc:Work
         rdf:about=""><dc:format>image/svg+xml</dc:format><dc:type
           rdf:resource="http://purl.org/dc/dcmitype/StillImage" /><dc:title></dc:title></cc:Work></rdf:RDF></metadata><defs
     id="defs22" /><g
     id="g3861"><g
       id="g5"><path
         d="M 0,50 C 0,22.385742 22.385254,0 50,0 h 650 c 27.61426,0 50,22.385742 50,50 v 500 c 0,27.61523 -22.38574,50 -50,50 H 50 C 22.385254,600 0,577.61523 0,550 V 50 l 0,0 z"
         id="path7" /><path
         d="M 375,300"
         id="path9" /></g><path
       d="M 375,10.001953 C 338.67236,32.46582 295.85059,45.430664 250,45.430664 204.14941,45.430664 161.32715,32.463867 125,10 L 10,125 c 21.163086,30.08057 33.587891,66.75244 33.587891,106.32764 0,28.56006 -6.471192,55.6084 -18.027832,79.7583 C 15.584961,331.95508 10,355.32617 10,380 10,468.36719 81.633301,540 170,540 H 270.11523 C 312.4585,540 350.24854,559.49414 375,589.99805 399.75098,559.49414 437.54102,540 479.88477,540 H 580 c 88.36719,0 160,-71.63281 160,-160 0,-24.67383 -5.58496,-48.04492 -15.56055,-68.91406 -11.55664,-24.1499 -18.02734,-51.19824 -18.02734,-79.7583 0,-39.5752 12.4248,-76.24707 33.58789,-106.32764 L 625,10 c -36.32715,22.463867 -79.14941,35.430664 -125,35.430664 -45.85059,0 -88.67285,-12.964844 -125,-35.428711 z"
       id="path11"
       style="fill:#ffffff;fill-opacity:1;fill-rule:evenodd" /></g><g
     id="text1331"
     style="font-size:447.76119995px;font-style:normal;font-variant:normal;font-weight:normal;font-stretch:normal;text-align:center;line-height:125%;writing-mode:lr-tb;text-anchor:middle;font-family:Roadgeek 2005 Series C;-inkscape-font-specification:Roadgeek 2005 Series C"><path
       d="m 92.288356,437.5 c 0.596996,-10.14924 1.194011,-18.95521 1.791045,-26.41791 0.895502,-7.46265 1.791023,-14.17906 2.686567,-20.14925 1.194006,-5.9701 2.537289,-11.64174 4.029852,-17.01493 1.79102,-5.67157 3.88057,-11.79097 6.26866,-18.35821 12.23876,-31.34317 28.35814,-56.26852 48.35821,-74.77612 1.79096,-1.49238 3.582,-2.98491 5.37313,-4.47761 2.08946,-1.79088 4.47752,-3.73118 7.16418,-5.8209 2.98498,-2.08938 6.41781,-4.62669 10.29851,-7.61194 4.17899,-2.9849 9.25361,-6.56698 15.22388,-10.74627 9.85061,-6.86548 16.41777,-12.68637 19.70149,-17.46268 3.58195,-4.77592 5.37299,-10.89531 5.37313,-18.35821 -1.4e-4,-5.67142 -1.19417,-11.04455 -3.58209,-16.11941 -2.08969,-5.07438 -5.07476,-9.55199 -8.95522,-13.43283 -3.58222,-3.88034 -8.05982,-6.86542 -13.43284,-8.95523 -5.07474,-2.38779 -10.44786,-3.58182 -16.1194,-3.58209 -5.97024,2.7e-4 -11.49263,1.1943 -16.56716,3.58209 -5.07471,2.08981 -9.55232,5.07489 -13.43284,8.95523 -3.58216,3.88084 -6.56723,8.35845 -8.95522,13.43283 -2.08962,5.07486 -3.13439,10.44799 -3.13433,16.11941 l -42.089554,0 c 0.298489,-11.64156 2.537293,-22.53707 6.716418,-32.68657 4.477586,-10.4475 10.447726,-19.40271 17.910446,-26.86567 7.46264,-7.76091 16.2686,-13.73105 26.41791,-17.91045 10.14918,-4.47731 21.19394,-6.71611 33.13433,-6.71642 11.64168,3.1e-4 22.38794,2.23911 32.23881,6.71642 10.14911,4.47791 18.95507,10.5973 26.41791,18.35821 7.76102,7.46296 13.73117,16.26892 17.91045,26.41791 4.47743,10.1495 6.71623,21.04501 6.71641,32.68657 -1.8e-4,23.88079 -8.50763,43.58226 -25.52238,59.10448 -1.4927,1.19419 -3.13449,2.38822 -4.92538,3.58209 -1.49269,0.89568 -2.98522,2.0897 -4.47761,3.58208 l -10.29851,7.61195 -10.74627,7.16417 -11.64179,8.50747 c -4.77623,3.58221 -9.55234,7.91057 -14.32835,12.98507 -4.47772,4.77624 -8.95532,10.14936 -13.43284,16.11941 -4.17919,5.67173 -7.91053,11.79113 -11.19403,18.3582 -3.28366,6.26874 -5.97022,12.53739 -8.0597,18.80597 -1.79112,3.88066 -3.1344,7.46275 -4.02985,10.74627 -0.59708,2.98513 -1.49261,7.16423 -2.68657,12.53732 l 121.34328,0 0,42.08955 -167.462684,0"
       id="path5501"
       style="font-family:Roadgeek 2005 Series C;-inkscape-font-specification:Roadgeek 2005 Series C" /><path
       d="m 454.13538,179.58955 c -13.433,15.22412 -25.37328,32.53754 -35.82089,51.9403 -10.4479,19.10466 -19.85087,40.74643 -28.20896,64.92537 -8.05981,22.9852 -13.8807,45.52249 -17.46269,67.61194 -3.58218,21.7911 -5.97024,46.26869 -7.16418,73.43284 l -42.08955,0 0,-6.26866 c -4e-5,-7.46267 0.44772,-16.11938 1.34329,-25.97015 0.89547,-9.8507 2.0895,-19.99994 3.58208,-30.44776 1.791,-10.74619 3.73129,-21.49245 5.8209,-32.2388 2.08949,-11.04467 4.47755,-21.49243 7.16418,-31.34329 3.28351,-11.94016 6.71635,-23.28343 10.29851,-34.02985 3.88052,-11.0446 8.05962,-21.79086 12.53731,-32.23881 4.77603,-10.44755 9.9999,-20.89531 15.67164,-31.34328 5.67154,-10.74603 12.23869,-22.08931 19.7015,-34.02985 l -112.83583,0 0,-42.08955 167.46269,0 0,42.08955 0,0"
       id="path5503"
       style="font-family:Roadgeek 2005 Series C;-inkscape-font-specification:Roadgeek 2005 Series C" /><path
       d="m 657.47375,287.05224 c -2e-4,22.9852 -1.34349,42.53742 -4.02985,58.65671 -2.38826,16.11948 -6.71661,31.34335 -12.98508,45.67165 -7.46286,17.91047 -16.86584,31.04479 -28.20895,39.40298 -11.04493,8.0597 -25.07476,12.08955 -42.08956,12.08955 -17.91054,0 -32.53739,-4.02985 -43.88059,-12.08955 -11.04484,-8.35819 -20.29856,-21.49251 -27.7612,-39.40298 -6.26869,-14.62681 -10.7463,-29.85067 -13.43283,-45.67165 -2.38809,-16.11929 -3.58212,-35.67151 -3.58209,-58.65671 -3e-5,-22.6864 1.194,-42.08936 3.58209,-58.20896 2.68653,-16.41768 7.16414,-31.7908 13.43283,-46.1194 7.76114,-17.91018 17.16412,-30.74599 28.20896,-38.50747 11.3432,-8.0594 25.8208,-12.08924 43.43283,-12.08955 17.3133,3.1e-4 31.49239,4.03015 42.53732,12.08955 11.04461,7.76148 20.29833,20.8958 27.76119,39.40299 2.98489,7.46293 5.5222,14.92561 7.61194,22.38806 2.38787,7.46291 4.17891,15.37335 5.37314,23.73134 1.49233,8.0599 2.53711,16.86587 3.13433,26.41791 0.59681,9.25391 0.89532,19.5524 0.89552,30.89553 m -41.19403,0 c -1.6e-4,-8.35805 -0.29867,-15.96999 -0.89552,-22.83582 -0.29867,-6.8655 -0.89569,-13.13415 -1.79105,-18.80597 -0.59717,-5.96996 -1.49269,-11.64159 -2.68657,-17.01493 -1.19418,-5.37292 -2.53746,-10.74605 -4.02985,-16.1194 -3.88074,-13.4326 -8.80611,-23.13408 -14.77612,-29.10448 -5.67177,-5.96989 -12.9852,-8.95496 -21.9403,-8.95523 -18.50756,2.7e-4 -31.19411,12.38832 -38.0597,37.16418 -3.58216,11.3435 -6.11947,22.83603 -7.61194,34.47762 -1.1941,11.34346 -1.79111,25.3733 -1.79104,42.08955 -7e-5,8.05984 0.14918,15.52252 0.44776,22.38806 0.59694,6.56728 1.19396,12.83593 1.79104,18.80597 0.89545,5.67174 1.94023,11.34338 3.13433,17.01493 1.19396,5.67172 2.53724,11.49261 4.02985,17.46268 6.86559,24.77617 19.55214,37.16422 38.0597,37.16418 8.9551,4e-5 16.26853,-2.98503 21.9403,-8.95522 5.97001,-5.9701 10.89538,-15.37308 14.77612,-28.20896 1.79089,-5.97007 3.28343,-11.6417 4.47762,-17.01492 1.19387,-5.67155 2.08939,-11.49244 2.68656,-17.46269 0.89536,-5.97004 1.49238,-12.23869 1.79105,-18.80597 0.29834,-6.86554 0.4476,-14.62672 0.44776,-23.28358"
       id="path5505"
       style="font-family:Roadgeek 2005 Series C;-inkscape-font-specification:Roadgeek 2005 Series C" /></g></svg>