<?xml version="1.0" encoding="UTF-8" standalone="no"?>
<!-- Created with Inkscape (http://www.inkscape.org/) -->
<svg
   xmlns:svg="http://www.w3.org/2000/svg"
   xmlns="http://www.w3.org/2000/svg"
   version="1.0"
   width="384"
   height="384"
   viewBox="0 0 384 384"
   id="Layer_1"
   xml:space="preserve"><defs
   id="defs2072">
	
	
	
</defs>
<g
   style="stroke:black;stroke-opacity:1"
   id="g2045">
		<path
   d="M 192,0.003418 C 177.13184,14.054688 157.07227,22.669922 135,22.669922 C 112.92676,22.669922 92.868164,14.052246 78,0 L 0,80.771484 C 19.416016,95.164551 32,118.25049 32,144.27588 C 32,160.76367 26.948242,176.07324 18.309082,188.73877 C 6.793457,205.58789 0,226.05078 0,248 C 0,305.78711 46.680176,352.66992 104.39014,352.99805 C 137.66846,352.99805 167.97559,364.60938 192,384 C 216.02344,364.60938 246.33203,352.99805 279.60938,352.99805 C 337.31934,352.66992 384,305.78711 384,248 C 384,226.05078 377.20703,205.58789 365.69043,188.73877 C 357.05078,176.07324 352,160.76367 352,144.27588 C 352,118.25049 364.58398,95.164551 384,80.771484 L 306,0 C 291.13184,14.052246 271.07227,22.669922 249,22.669922 C 226.92773,22.669922 206.86719,14.054688 192,0.003418 z "
   style="fill:white;fill-rule:evenodd;stroke:black;stroke-opacity:1"
   id="path2047" />
		
			<path
   d="M 192,0.003418 C 177.13184,14.054688 157.07227,22.669922 135,22.669922 C 112.92676,22.669922 92.868164,14.052246 78,0 L 0,80.771484 C 19.416016,95.164551 32,118.25049 32,144.27588 C 32,160.76367 26.948242,176.07324 18.309082,188.73877 C 6.793457,205.58789 0,226.05078 0,248 C 0,305.78711 46.680176,352.66992 104.39014,352.99805 C 137.66846,352.99805 167.97559,364.60938 192,384 C 216.02344,364.60938 246.33203,352.99805 279.60938,352.99805 C 337.31934,352.66992 384,305.78711 384,248 C 384,226.05078 377.20703,205.58789 365.69043,188.73877 C 357.05078,176.07324 352,160.76367 352,144.27588 C 352,118.25049 364.58398,95.164551 384,80.771484 L 306,0 C 291.13184,14.052246 271.07227,22.669922 249,22.669922 C 226.92773,22.669922 206.86719,14.054688 192,0.003418 z "
   style="fill:none;fill-rule:evenodd;stroke:black;stroke-width:0;stroke-linecap:round;stroke-linejoin:round;stroke-miterlimit:3.863693;stroke-opacity:1"
   id="path2049" />
	</g><g
   style="stroke:none;stroke-opacity:1"
   id="g2051">
		<path
   d="M 303.87109,28.027344 L 354.23828,80.183105 C 339.74805,97.525391 331,119.88574 331,144.27588 C 331,165.11914 337.40527,184.53857 348.34766,200.58008 C 357.56543,214.06836 363,230.43164 363,248 C 363,294.22949 325.65625,331.73633 279.49023,331.99902 C 247.12109,332.02148 217.1582,341.61621 192,358.06055 C 166.81104,341.5957 136.80469,331.99805 104.39014,331.99805 C 58.279785,331.67285 21,294.19043 21,248 C 21,230.43262 26.434082,214.06836 35.652344,200.58008 C 46.594238,184.53857 53,165.11914 53,144.27588 C 53,119.88525 44.251953,97.525391 29.761231,80.183106 L 80.12793,28.027344 C 96.056152,37.936523 114.87451,43.669922 135,43.669922 C 156.02832,43.669922 175.62988,37.411133 192,26.669922 C 208.36914,37.411133 227.97168,43.669922 249,43.669922 C 269.125,43.669922 287.94336,37.936523 303.87109,28.027344 z M 249,31.669922 C 270.25488,31.669922 289.83789,24.452149 305.41211,12.347656 L 370.81445,80.074219 C 353.70605,96.120117 343,118.94775 343,144.27588 C 343,162.63037 348.63086,179.70117 358.25781,193.81348 C 368.78906,209.22266 375,227.92773 375,248 C 375,300.83398 332.32031,343.69922 279.55859,343.99805 C 246.71582,344.00977 216.57617,354.6543 192,372.65039 C 167.41064,354.64551 137.25244,343.99805 104.39014,343.99805 C 51.651367,343.67188 9,300.81641 9,248 C 9,227.92773 15.210938,209.22266 25.742188,193.81348 C 35.368164,179.70117 41,162.63037 41,144.27588 C 41,118.94775 30.293457,96.120117 13.18457,80.074219 L 78.587891,12.347656 C 94.162598,24.452148 113.74463,31.669922 135,31.669922 C 156.52197,31.669922 176.33105,24.270996 192,11.889649 C 207.66992,24.270996 227.47754,31.669922 249,31.669922 z "
   style="fill-rule:evenodd;stroke:none;stroke-opacity:1"
   id="path2053" />
	</g><g
   style="stroke:none;stroke-opacity:1"
   id="g2055">
		<g
   style="stroke:none;stroke-opacity:1"
   id="g2057">
			<path
   d="M 187.34033,94.325684 C 187.34033,100.04688 185.57275,104.75586 182.03809,108.45361 C 178.50293,112.15137 173.99121,114 168.50293,114 C 163.01465,114 158.50293,112.15137 154.96826,108.45361 C 151.43311,104.75586 149.66602,100.04688 149.66602,94.325684 L 149.66602,66.418945 L 158.03809,66.418945 L 158.03809,94.325684 C 158.03809,96.697754 158.52637,98.721191 159.50293,100.39551 C 161.54932,103.79102 164.54932,105.48877 168.50293,105.48877 C 172.50293,105.48877 175.50293,103.79102 177.50293,100.39551 C 178.52637,98.721191 179.03809,96.697754 179.03809,94.325684 L 179.03809,66.418945 L 187.34033,66.418945 L 187.34033,94.325684 L 187.34033,94.325684 z "
   style="fill-rule:evenodd;stroke:none;stroke-opacity:1"
   id="path2059" />
		</g>
		<g
   style="stroke:none;stroke-opacity:1"
   id="g2061">
			<path
   d="M 234.33398,99.513672 C 234.33398,104.20264 232.14844,107.84668 227.77637,110.44727 C 224.33398,112.53662 220.4043,113.58154 215.98535,113.58154 C 208.31055,113.58154 201.86914,110.59619 196.66016,104.62451 L 203.35742,99.418945 C 206.66016,103.32568 210.82227,105.2793 215.8457,105.2793 C 218.77637,105.2793 221.20605,104.69873 223.13672,103.53809 C 225.06641,102.37744 226.03125,100.93848 226.03125,99.220215 C 226.03125,97.270508 225.03125,95.854492 223.03125,94.97168 C 222.66016,94.785644 220.79883,94.182617 217.4502,93.161621 L 215.35742,92.534668 L 213.19434,92.047363 L 210.89258,91.350586 C 206.33398,90.050781 203.28711,88.541504 201.75195,86.823731 C 199.79883,84.595215 198.82227,81.97168 198.82227,78.954102 C 198.82227,75.100098 200.29883,71.977539 203.25195,69.586426 C 206.20605,67.195801 210.07813,66 214.86914,66 C 221.79883,66 227.58984,68.405762 232.24121,73.216797 L 226.03125,78.767578 C 223.10156,75.697754 219.38086,74.163086 214.86914,74.163086 C 209.8457,74.163086 207.33398,75.741211 207.33398,78.898438 C 207.33398,80.198731 207.8457,81.208496 208.86914,81.928223 C 209.89258,82.648438 211.82227,83.333008 214.66016,83.98291 C 220.8457,85.32959 225.17188,86.629395 227.63672,87.882813 C 229.68262,88.950684 231.31055,90.517578 232.51953,92.583985 C 233.72949,94.649902 234.33398,96.959961 234.33398,99.513672 z "
   style="fill-rule:evenodd;stroke:none;stroke-opacity:1"
   id="path2063" />
		</g>
	</g>
<g
   id="g2065">
	<path
   d="M 174.70801,242.20117 C 174.70801,259.44141 168.35889,273.7168 155.66016,285.03027 C 142.9624,296.34375 126.83887,302 107.29102,302 C 93.591797,302 80.970703,299.07617 69.426269,293.22656 L 81.201172,271.52344 C 88.435547,275.21875 98.209473,277.06445 110.52295,277.06445 C 121.75928,277.06445 131.18701,273.75586 138.80615,267.13672 C 146.42529,260.51855 150.23437,252.20703 150.23437,242.20117 C 150.23437,234.66016 147.54102,228.27246 142.15381,223.03906 C 136.7666,217.80566 130.2251,215.18945 122.52881,215.18945 C 117.1416,215.18945 112.79346,216.2666 109.48437,218.42187 C 106.1748,220.57617 102.21143,224.88574 97.594238,231.35156 L 73.120605,224.42383 L 77.04541,144.54004 L 165.93457,144.54004 L 165.93457,169.0127 L 100.82617,169.0127 L 99.209961,194.41016 C 109.36865,191.63965 117.2959,190.25391 122.99072,190.25391 C 137.15137,190.25391 149.31104,195.37207 159.46973,205.60742 C 169.62842,215.84375 174.70801,228.04102 174.70801,242.20117 z "
   style="fill-rule:evenodd"
   id="path2067" />
	<path
   d="M 314.57324,222.11523 C 314.57324,250.89844 308.41602,272.52441 296.10352,286.99316 C 287.33008,296.99805 275.40039,302 260.31641,302 C 239.8457,302 225.06836,292.76563 215.9873,274.29492 C 208.75293,259.51758 205.13672,242.125 205.13672,222.11523 C 205.13672,195.4873 210.75391,174.5542 221.99023,159.31592 C 230.45605,147.77148 243.61621,142 261.4707,142 C 280.86523,142 295.17969,151.15869 304.41406,169.4751 C 311.1875,183.32764 314.57324,200.875 314.57324,222.11523 z M 290.33008,222.11523 C 290.33008,203.64453 287.25195,189.17676 281.0957,178.70996 C 276.63184,171.32178 269.93652,167.39697 261.00977,166.93506 C 249.77344,166.31934 241.46094,172.63037 236.07422,185.86768 C 232.07227,195.71875 230.07129,207.80078 230.07129,222.11523 C 230.07129,240.58594 233.14941,254.90039 239.30664,265.05957 C 244.07812,273.0625 251.08105,277.06445 260.31641,277.06445 C 271.09082,277.06445 279.09473,270.52344 284.32812,257.44043 C 288.33008,247.43555 290.33008,235.66016 290.33008,222.11523 z "
   style="fill-rule:evenodd"
   id="path2069" />
</g>
</svg>