<?xml version="1.0" encoding="UTF-8" standalone="no"?>
<!-- Created with Inkscape (http://www.inkscape.org/) -->

<svg
   xmlns:dc="http://purl.org/dc/elements/1.1/"
   xmlns:cc="http://creativecommons.org/ns#"
   xmlns:rdf="http://www.w3.org/1999/02/22-rdf-syntax-ns#"
   xmlns:svg="http://www.w3.org/2000/svg"
   xmlns="http://www.w3.org/2000/svg"
   version="1.1"
   width="600"
   height="600"
   id="svg2989">
  <defs
     id="defs2991" />
  <metadata
     id="metadata2994">
    <rdf:RDF>
      <cc:Work
         rdf:about="">
        <dc:format>image/svg+xml</dc:format>
        <dc:type
           rdf:resource="http://purl.org/dc/dcmitype/StillImage" />
        <dc:title></dc:title>
      </cc:Work>
    </rdf:RDF>
  </metadata>
  <g
     transform="translate(-44.759056,-235.78223)"
     id="layer1">
    <rect
       width="600"
       height="600"
       rx="37.5"
       ry="37.5"
       x="44.759056"
       y="235.78223"
       id="rect2997"
       style="fill:#000000;fill-opacity:1;fill-rule:nonzero;stroke:none" />
    <path
       d="m 157.25906,335.78223 0,-81.25 468.75,0 0,562.5 -206.25,0 -356.250004,-81.25 0,-400 z"
       id="rect3767"
       style="fill:#ffffff;fill-opacity:1;fill-rule:nonzero;stroke:none" />
    <g
       id="text3770"
       style="font-size:447.76119995px;font-style:normal;font-variant:normal;font-weight:normal;font-stretch:normal;text-align:center;line-height:125%;letter-spacing:0px;word-spacing:0px;writing-mode:lr-tb;text-anchor:middle;fill:#000000;fill-opacity:1;stroke:none;font-family:Roadgeek 2005 Series D;-inkscape-font-specification:Roadgeek 2005 Series D">
      <path
         d="m 323.97663,614.96133 c -2.4e-4,13.73143 -2.83605,26.71649 -8.50746,38.95522 -5.37336,12.23885 -12.83604,22.98511 -22.38806,32.23881 -9.25393,9.25375 -20.00019,16.56717 -32.23881,21.9403 -12.23896,5.37313 -25.22403,8.0597 -38.95522,8.0597 -13.73147,0 -26.71653,-2.68657 -38.95523,-8.0597 -12.23889,-5.37313 -23.1344,-12.68655 -32.68657,-21.9403 -9.25378,-9.2537 -16.71646,-19.99996 -22.38806,-32.23881 -5.37316,-12.23873 -8.05973,-25.22379 -8.0597,-38.95522 -3e-5,-14.32825 2.98504,-27.16406 8.95523,-38.50746 5.9701,-11.64165 14.47755,-21.94015 25.52238,-30.89553 -14.62691,-15.5222 -21.94034,-33.73114 -21.94029,-54.62686 -5e-5,-11.64156 2.38801,-22.53707 7.16417,-32.68657 4.77607,-10.4475 11.19397,-19.55197 19.25374,-27.31343 8.35813,-8.05942 17.91036,-14.32807 28.65671,-18.80597 10.74616,-4.47731 22.23869,-6.71612 34.47762,-6.71642 11.94015,3e-4 23.43268,2.23911 34.47761,6.71642 11.0446,4.4779 20.59683,10.74655 28.65671,18.80597 8.35801,7.76146 14.92517,16.86593 19.7015,27.31343 5.0744,10.1495 7.61172,21.04501 7.61194,32.68657 -2.2e-4,10.44797 -2.08977,20.2987 -6.26866,29.55224 -3.88081,8.9554 -9.55244,17.3136 -17.01492,25.07462 11.64158,8.95538 20.29828,19.40313 25.97014,31.34329 5.96992,11.64191 8.95499,24.32847 8.95523,38.0597 m -60,-125.37314 c -1.8e-4,-9.85051 -4.17928,-18.20871 -12.53732,-25.07462 -8.05985,-7.16393 -17.91059,-10.74602 -29.55223,-10.74627 -11.64192,2.5e-4 -21.64191,3.58234 -30.00001,10.74627 -8.05979,6.86591 -12.08964,15.22411 -12.08955,25.07462 -9e-5,8.95544 4.02976,16.71663 12.08955,23.28359 8.3581,6.26884 18.35809,9.40317 30.00001,9.40298 11.64164,1.9e-4 21.49238,-3.13414 29.55223,-9.40298 8.35804,-6.56696 12.53714,-14.32815 12.53732,-23.28359 m 12.53731,126.26866 c -1.8e-4,-6.26855 -1.49272,-12.08944 -4.47761,-17.46268 -2.98525,-5.67153 -7.0151,-10.44764 -12.08955,-14.32836 -4.77629,-4.17898 -10.44792,-7.46256 -17.01493,-9.85075 -6.56731,-2.38792 -13.58223,-3.58195 -21.04477,-3.58209 -7.46282,1.4e-4 -14.47773,1.19417 -21.04478,3.58209 -6.26876,2.38819 -11.9404,5.67177 -17.01493,9.85075 -4.77621,3.88072 -8.6568,8.65683 -11.64179,14.32836 -2.68664,5.37324 -4.02993,11.19413 -4.02985,17.46268 -8e-5,7.16427 1.34321,13.88068 4.02985,20.14926 2.98499,6.26872 6.86558,11.7911 11.64179,16.56716 5.07453,4.77617 10.74617,8.50751 17.01493,11.19403 6.56705,2.68661 13.58196,4.02989 21.04478,4.02985 7.46254,4e-5 14.47746,-1.34324 21.04477,-4.02985 6.86551,-2.68652 12.6864,-6.41786 17.46269,-11.19403 5.07445,-4.77606 8.95504,-10.29844 11.64179,-16.56716 2.98489,-6.26858 4.47743,-12.98499 4.47761,-20.14926"
         id="path3820" />
      <path
         d="m 577.80826,458.24491 c -2.68679,3.28383 -5.2241,6.2689 -7.61194,8.95522 -2.08976,2.68681 -4.17931,5.37338 -6.26865,8.05971 -1.79126,2.6868 -3.73155,5.52261 -5.8209,8.50746 -2.08975,2.9853 -4.32856,6.41813 -6.71642,10.29851 -13.43302,22.08974 -24.92554,45.3733 -34.47761,69.85074 -9.25389,24.47774 -16.41806,48.80607 -21.49254,72.98508 -0.89566,6.26872 -1.79118,12.38812 -2.68657,18.35821 -0.89566,5.67169 -1.64192,11.49258 -2.2388,17.46268 -0.29865,5.67168 -0.59715,11.64182 -0.89552,17.91045 -0.29865,5.97017 -0.4479,12.68658 -0.44776,20.14926 l -48.35821,0 c 0.29842,-17.31342 1.34319,-34.02982 3.13432,-50.14926 1.79096,-16.11933 4.32827,-31.94021 7.61194,-47.46269 3.58199,-15.52227 8.0596,-30.89539 13.43284,-46.1194 5.37302,-15.52223 11.79092,-31.19385 19.25373,-47.01492 5.07449,-11.34309 10.59688,-22.38785 16.56717,-33.13433 5.96999,-10.74604 11.64163,-20.29827 17.01492,-28.65672 l -143.28358,0 0,-47.46269 203.28358,0 0,47.46269 0,0"
         id="path3822" />
    </g>
    <g
       id="text3774"
       style="font-size:93.28358459px;font-style:normal;font-variant:normal;font-weight:normal;font-stretch:normal;text-align:center;line-height:125%;letter-spacing:0px;word-spacing:0px;writing-mode:lr-tb;text-anchor:middle;fill:#000000;fill-opacity:1;stroke:none;font-family:Roadgeek 2005 Series D;-inkscape-font-specification:Roadgeek 2005 Series D">
      <path
         d="m 252.73481,348.28223 -6.15672,-17.53732 -19.49627,0 -6.15672,17.53732 -10.54104,0 21.54851,-62.50001 9.79477,0 21.54851,62.50001 -10.54104,0 m -15.76493,-45.14926 -6.43657,17.53732 12.5,0 -6.06343,-17.53732"
         id="path3779"
         style="letter-spacing:1.56288195" />
      <path
         d="m 306.10506,348.28223 -10.07463,-27.23881 -11.84701,0 0,27.23881 -9.88806,0 0,-62.50001 20.61567,0 c 2.42534,7e-5 4.50867,0.15554 6.25,0.46642 1.74126,0.24882 3.38927,0.74633 4.94403,1.49254 1.36812,0.68414 2.6119,1.58588 3.73134,2.70522 1.18155,1.05727 2.17657,2.30105 2.98508,3.73135 0.8706,1.36821 1.52358,2.86075 1.95895,4.47761 0.49747,1.55477 0.74622,3.1095 0.74627,4.66418 -5e-5,1.67915 -0.2488,3.32715 -0.74627,4.94403 -0.43537,1.55476 -1.08835,3.0473 -1.95895,4.47761 -0.80851,1.36819 -1.83462,2.61197 -3.07836,3.73134 -1.18163,1.11944 -2.4876,1.99008 -3.91791,2.61194 l 11.00746,29.19777 -10.72761,0 m -0.46642,-44.96269 c -4e-5,-1.30593 -0.34208,-2.54971 -1.02612,-3.73134 -0.68411,-1.18155 -1.64804,-2.11438 -2.89179,-2.79851 -0.80849,-0.43527 -1.55476,-0.71512 -2.2388,-0.83955 -0.68412,-0.18652 -1.83461,-0.2798 -3.4515,-0.27986 l -11.84701,0 0,15.29851 11.84701,0 c 1.5547,4e-5 2.6741,-0.0622 3.35821,-0.18656 0.74624,-0.12434 1.5236,-0.4042 2.33209,-0.83956 1.24375,-0.68404 2.20768,-1.61687 2.89179,-2.7985 0.68404,-1.24374 1.02608,-2.51862 1.02612,-3.82463"
         id="path3781"
         style="letter-spacing:1.56288195" />
      <path
         d="m 330.7523,348.28223 0,-62.50001 10.07463,0 0,62.50001 -10.07463,0"
         id="path3783"
         style="letter-spacing:1.56288195" />
      <path
         d="m 353.82922,348.28223 0,-8.30224 28.54478,-44.30971 -26.1194,0 0,-9.88806 40.11194,0 0,5.87687 -28.91791,46.54851 28.91791,0 0,10.07463 -42.53732,0"
         id="path3785"
         style="letter-spacing:1.56288195" />
      <path
         d="m 451.4261,317.12551 c -5e-5,4.97515 -0.59085,9.73261 -1.77239,14.27239 -1.18164,4.53981 -2.86074,8.20896 -5.03731,11.00746 -3.48263,4.66418 -8.51994,6.99627 -15.11194,6.99627 -4.41545,0 -8.05351,-0.90174 -10.91418,-2.70522 -2.86071,-1.80348 -5.22389,-4.63308 -7.08955,-8.48881 -1.30598,-2.67412 -2.3632,-5.90794 -3.17165,-9.70149 -0.80846,-3.8557 -1.21269,-7.64923 -1.21268,-11.3806 -10e-6,-5.16166 0.59079,-9.95021 1.77239,-14.36567 1.24377,-4.41538 2.92287,-8.11562 5.03731,-11.10075 1.86566,-2.36312 4.07337,-4.10442 6.62313,-5.22388 2.61192,-1.18153 5.72137,-1.77232 9.32836,-1.77239 3.98007,7e-5 7.36937,0.90181 10.16791,2.70523 2.79847,1.80354 5.19274,4.63314 7.18284,8.4888 1.30592,2.79856 2.33204,6.06348 3.07836,9.79478 0.74622,3.73138 1.11935,7.556 1.1194,11.47388 m -9.88806,0 c -4e-5,-3.54474 -0.31099,-6.80966 -0.93284,-9.79478 -0.62193,-3.04722 -1.55476,-5.62806 -2.7985,-7.74253 -0.99506,-1.61687 -2.14556,-2.79846 -3.4515,-3.54478 -1.24381,-0.74622 -2.79853,-1.18154 -4.66418,-1.30597 -2.42539,-0.12433 -4.44654,0.43538 -6.06343,1.6791 -1.61693,1.24384 -2.954,3.26498 -4.01119,6.06344 -0.80848,1.86571 -1.43037,4.13561 -1.86567,6.8097 -0.37315,2.61197 -0.55972,5.22391 -0.55971,7.83582 -10e-6,3.35824 0.31093,6.59206 0.93284,9.70149 0.62187,3.10947 1.55471,5.65922 2.79851,7.64926 0.995,1.61692 2.17659,2.82961 3.54477,3.63806 1.36814,0.80846 3.04724,1.21269 5.03732,1.21268 2.30096,10e-6 4.19773,-0.62188 5.6903,-1.86567 1.55469,-1.24377 2.86066,-3.26491 3.91791,-6.06343 0.3109,-0.80844 0.62185,-1.77237 0.93283,-2.89179 0.31091,-1.18157 0.55966,-2.39426 0.74627,-3.63806 0.24872,-1.30595 0.43528,-2.61192 0.5597,-3.91791 0.12434,-1.30595 0.18653,-2.58082 0.18657,-3.82463"
         id="path3787"
         style="letter-spacing:1.56288195" />
      <path
         d="m 500.59859,348.28223 -23.8806,-42.35075 0,42.35075 -9.88806,0 0,-62.50001 9.88806,0 22.76119,39.92538 0,-39.92538 9.88806,0 0,62.50001 -8.76865,0"
         id="path3789"
         style="letter-spacing:1.56288195" />
      <path
         d="m 562.63111,348.28223 -6.15672,-17.53732 -19.49627,0 -6.15671,17.53732 -10.54105,0 21.54851,-62.50001 9.79478,0 21.5485,62.50001 -10.54104,0 m -15.76493,-45.14926 -6.43656,17.53732 12.5,0 -6.06344,-17.53732"
         id="path3791"
         style="letter-spacing:1.56288195" />
    </g>
  </g>
</svg>
