<?xml version="1.0" encoding="UTF-8" standalone="no"?>
<!-- Created with Inkscape (http://www.inkscape.org/) -->

<svg
   xmlns:dc="http://purl.org/dc/elements/1.1/"
   xmlns:cc="http://creativecommons.org/ns#"
   xmlns:rdf="http://www.w3.org/1999/02/22-rdf-syntax-ns#"
   xmlns:svg="http://www.w3.org/2000/svg"
   xmlns="http://www.w3.org/2000/svg"
   version="1.2"
   width="750"
   height="600"
   viewBox="0 0 750 600"
   id="Layer_1"
   xml:space="preserve"
   style="overflow:visible"><metadata
     id="metadata24"><rdf:RDF><cc:Work
         rdf:about=""><dc:format>image/svg+xml</dc:format><dc:type
           rdf:resource="http://purl.org/dc/dcmitype/StillImage" /><dc:title></dc:title></cc:Work></rdf:RDF></metadata><defs
     id="defs22" /><g
     id="g3861"><g
       id="g5"><path
         d="M 0,50 C 0,22.385742 22.385254,0 50,0 h 650 c 27.61426,0 50,22.385742 50,50 v 500 c 0,27.61523 -22.38574,50 -50,50 H 50 C 22.385254,600 0,577.61523 0,550 V 50 l 0,0 z"
         id="path7" /><path
         d="M 375,300"
         id="path9" /></g><path
       d="M 375,10.001953 C 338.67236,32.46582 295.85059,45.430664 250,45.430664 204.14941,45.430664 161.32715,32.463867 125,10 L 10,125 c 21.163086,30.08057 33.587891,66.75244 33.587891,106.32764 0,28.56006 -6.471192,55.6084 -18.027832,79.7583 C 15.584961,331.95508 10,355.32617 10,380 10,468.36719 81.633301,540 170,540 H 270.11523 C 312.4585,540 350.24854,559.49414 375,589.99805 399.75098,559.49414 437.54102,540 479.88477,540 H 580 c 88.36719,0 160,-71.63281 160,-160 0,-24.67383 -5.58496,-48.04492 -15.56055,-68.91406 -11.55664,-24.1499 -18.02734,-51.19824 -18.02734,-79.7583 0,-39.5752 12.4248,-76.24707 33.58789,-106.32764 L 625,10 c -36.32715,22.463867 -79.14941,35.430664 -125,35.430664 -45.85059,0 -88.67285,-12.964844 -125,-35.428711 z"
       id="path11"
       style="fill:#ffffff;fill-opacity:1;fill-rule:evenodd" /></g><g
     id="text1331"
     style="font-size:447.76119995px;font-style:normal;font-variant:normal;font-weight:normal;font-stretch:normal;text-align:center;line-height:125%;writing-mode:lr-tb;text-anchor:middle;font-family:Roadgeek 2005 Series C;-inkscape-font-specification:Roadgeek 2005 Series C"><path
       d="m 255.83955,356.45522 c -1.8e-4,12.23888 -2.08973,23.7314 -6.26865,34.47762 -4.17928,10.44779 -10.00017,19.55226 -17.46269,27.31343 -7.16433,7.7612 -15.97029,13.8806 -26.41791,18.35821 -10.14938,4.1791 -21.19414,6.26865 -33.13433,6.26865 -12.2389,0 -23.43291,-2.08955 -33.58209,-6.26865 -9.8508,-4.1791 -18.50751,-9.99999 -25.97015,-17.46269 -7.16421,-7.46266 -12.9851,-16.26862 -17.462686,-26.41791 -4.179125,-10.44771 -6.567183,-21.79098 -7.164179,-34.02985 l 42.089555,0 c 1.19397,12.23887 5.52232,22.38812 12.98507,30.44776 7.76112,7.76124 17.4626,11.64183 29.10448,11.64179 12.23869,4e-5 22.23868,-4.17906 30,-12.53731 8.05956,-8.65666 12.08941,-19.25367 12.08955,-31.79105 -1.4e-4,-8.05961 -1.04492,-15.52229 -3.13432,-22.38806 -2.0897,-7.16407 -4.92551,-13.28346 -8.50747,-18.35821 -3.58222,-5.373 -7.76132,-9.5521 -12.53731,-12.53731 -4.47773,-2.98494 -9.4031,-4.47747 -14.77612,-4.47761 l -21.04478,0 0,-41.19403 17.91045,0 c 5.37303,1.8e-4 9.40287,-0.89534 12.08955,-2.68657 2.98496,-1.79086 6.26854,-4.77593 9.85075,-8.95522 8.65658,-9.55204 12.98494,-20.74606 12.98507,-33.58209 -1.3e-4,-11.64156 -3.28371,-20.89528 -9.85074,-27.7612 -6.26878,-6.86541 -14.62698,-10.29824 -25.07463,-10.29851 -9.55233,2.7e-4 -17.16426,2.83609 -22.83582,8.50747 -5.37321,5.37338 -8.65679,13.13457 -9.85075,23.28358 l -42.08955,-5.37313 c 1.194002,-9.8505 3.88057,-18.95497 8.0597,-27.31344 4.17907,-8.65644 9.5522,-15.96987 16.11941,-21.9403 6.5671,-5.96985 14.17903,-10.59672 22.83582,-13.88059 8.65663,-3.58179 17.91035,-5.37283 27.76119,-5.37314 10.74616,3.1e-4 20.74615,1.9406 30,5.8209 9.25359,3.88089 17.16403,9.40327 23.73134,16.56716 6.86551,6.86595 12.23864,15.0749 16.11941,24.62687 3.88042,9.25398 5.82072,19.25397 5.82089,30 -1.7e-4,12.53753 -2.08972,24.17931 -6.26865,34.92537 -3.88077,10.74645 -10.89569,21.94047 -21.04478,33.58209 11.64163,10.44791 20.29834,22.3882 25.97015,35.8209 5.96997,13.43294 8.95504,27.76129 8.95522,42.98507"
       id="path6633"
       style="font-family:Roadgeek 2005 Series C;-inkscape-font-specification:Roadgeek 2005 Series C" /><path
       d="m 458.73135,239.58955 c -1.8e-4,37.31359 -9.10465,73.13445 -27.31343,107.46269 -17.91059,34.32841 -43.2837,64.47764 -76.1194,90.44776 l -24.17911,-33.58209 c 6.26859,-4.77608 12.53725,-10.44772 18.80597,-17.01493 6.56708,-6.86561 12.68648,-14.02978 18.35821,-21.49253 5.67154,-7.76112 10.74616,-15.5223 15.22388,-23.28359 4.4775,-7.76109 8.05959,-15.22377 10.74627,-22.38806 -3.58221,0.59714 -6.86578,0.89564 -9.85075,0.89553 -2.68667,1.1e-4 -5.67174,1.1e-4 -8.95522,0 -25.97023,1.1e-4 -46.56722,-8.50734 -61.79105,-25.52239 -14.92539,-17.01477 -22.38807,-40.14907 -22.38806,-69.40299 -1e-5,-14.02962 1.94028,-26.71618 5.8209,-38.0597 3.88057,-11.64153 9.40295,-21.49227 16.56716,-29.55224 7.46264,-8.35792 16.41786,-14.77582 26.86568,-19.25373 10.44768,-4.47731 22.08946,-6.71611 34.92537,-6.71642 27.46256,3.1e-4 48.20881,9.10478 62.23881,27.31343 14.02967,18.20922 21.04459,44.92561 21.04477,80.14926 m -41.19403,-9.40299 c -1.4e-4,-17.0147 -3.88073,-30.59677 -11.64179,-40.74626 -7.76132,-10.149 -17.91056,-15.22362 -30.44776,-15.22389 -13.43292,2.7e-4 -23.88067,4.62713 -31.34328,13.8806 -7.16425,9.25397 -10.74633,21.79127 -10.74627,37.61194 -6e-5,16.41811 3.58202,29.40317 10.74627,38.95523 7.46261,9.25389 17.91036,13.88075 31.34328,13.88059 12.5372,1.6e-4 22.68644,-4.32819 30.44776,-12.98507 7.76106,-8.65654 11.64165,-20.44757 11.64179,-35.37314"
       id="path6635"
       style="font-family:Roadgeek 2005 Series C;-inkscape-font-specification:Roadgeek 2005 Series C" /><path
       d="m 661.62315,332.27612 c -1.8e-4,15.82098 -2.38824,30.44783 -7.16418,43.8806 -4.77629,13.43288 -11.34345,25.07466 -19.70149,34.92537 -8.35836,9.85076 -18.20909,17.61195 -29.55224,23.28358 -11.3434,5.67164 -23.73145,8.50746 -37.16418,8.50746 -13.43291,0 -26.41797,-2.2388 -38.95522,-6.71641 -12.23885,-4.47761 -23.88063,-11.04477 -34.92538,-19.7015 l 28.20896,-30.44776 c 7.46263,5.07468 14.3283,8.80601 20.59702,11.19403 6.26858,2.3881 13.13424,3.58213 20.59701,3.58209 8.05961,4e-5 15.52229,-1.64175 22.38806,-4.92537 6.86556,-3.58205 12.68645,-8.50741 17.46269,-14.77612 5.07449,-6.2686 8.95509,-13.73127 11.64179,-22.38806 2.98493,-8.65663 4.47747,-18.20886 4.47761,-28.65672 -1.4e-4,-16.41778 -3.73148,-29.25359 -11.19403,-38.50746 -7.46281,-9.25358 -17.4628,-13.88044 -30,-13.8806 -13.13442,1.6e-4 -25.0747,4.92553 -35.8209,14.77612 l -41.19403,-5.37313 7.61194,-149.55224 141.04478,0 0,42.08955 -101.19403,0 -3.13433,63.13433 c 7.46261,-2.68637 13.43276,-4.32816 17.91045,-4.92538 4.77603,-0.89532 9.9999,-1.34308 15.67164,-1.34328 12.23869,2e-4 23.43271,2.38826 33.58209,7.16418 10.14911,4.4778 18.80582,11.04496 25.97015,19.70149 7.16401,8.35838 12.68639,18.35837 16.56717,30 4.17892,11.64193 6.26847,24.62699 6.26865,38.95523"
       id="path6637"
       style="font-family:Roadgeek 2005 Series C;-inkscape-font-specification:Roadgeek 2005 Series C" /></g></svg>