<?xml version="1.0" encoding="UTF-8" standalone="no"?>
<!-- Created with Inkscape (http://www.inkscape.org/) -->

<svg
   xmlns:dc="http://purl.org/dc/elements/1.1/"
   xmlns:cc="http://creativecommons.org/ns#"
   xmlns:rdf="http://www.w3.org/1999/02/22-rdf-syntax-ns#"
   xmlns:svg="http://www.w3.org/2000/svg"
   xmlns="http://www.w3.org/2000/svg"
   version="1.1"
   width="600"
   height="600"
   viewBox="0 0 600 600"
   id="Layer_1"
   xml:space="preserve"
   style="overflow:visible"><metadata
     id="metadata20"><rdf:RDF><cc:Work
         rdf:about=""><dc:format>image/svg+xml</dc:format><dc:type
           rdf:resource="http://purl.org/dc/dcmitype/StillImage" /><dc:title></dc:title></cc:Work></rdf:RDF></metadata><defs
     id="defs18" /><path
     d="M 300,300"
     id="path7" /><path
     d="m 300,10.00293 c 23.56445,20.075195 54.11719,32.191406 87.5,32.191406 33.38281,0 63.93555,-12.119141 87.5,-32.194336 l 115,115 c -21.16211,30.08105 -33.58789,66.75391 -33.58789,106.32617 0,28.46387 6.42676,55.42481 17.91016,79.5127 C 584.24414,331.66406 590,355.39453 590,380 590,468.36719 518.36719,540 430,540 H 404.88672 C 362.54199,540 324.75098,559.49512 300,590 275.24854,559.49512 237.45801,540 195.11328,540 H 169.99951 C 81.632813,540 9.9995117,468.36719 9.9995117,380 c 0,-24.60547 5.7563473,-48.33594 15.6787113,-69.16113 11.482422,-24.08789 17.910156,-51.04883 17.910156,-79.5127 C 43.588379,191.75391 31.161621,155.08105 10,125 L 125,10 c 23.56445,20.075195 54.1167,32.194336 87.5,32.194336 33.38281,0 63.93555,-12.116211 87.5,-32.191406 z"
     id="path11"
     style="fill:#ffffff;fill-opacity:1;fill-rule:evenodd" /><g
     id="g3886"><path
       d="M 0,50 C 0,22.385742 22.385254,0 50,0 h 500 c 27.61426,0 50,22.385742 50,50 v 500 c 0,27.61523 -22.38574,50 -50,50 H 50 C 22.385254,600 0,577.61523 0,550 V 50 l 0,0 z"
       id="path5" /><path
       d="m 300,10.00293 c 23.56445,20.075195 54.11719,32.191406 87.5,32.191406 33.38281,0 63.93555,-12.119141 87.5,-32.194336 l 115,115 c -21.16211,30.08105 -33.58789,66.75391 -33.58789,106.32617 0,28.46387 6.42676,55.42481 17.91016,79.5127 C 584.24414,331.66406 590,355.39453 590,380 590,468.36719 518.36719,540 430,540 H 404.88672 C 362.54199,540 324.75098,559.49512 300,590 275.24854,559.49512 237.45801,540 195.11328,540 H 169.99951 C 81.632813,540 9.9995117,468.36719 9.9995117,380 c 0,-24.60547 5.7563473,-48.33594 15.6787113,-69.16113 11.482422,-24.08789 17.910156,-51.04883 17.910156,-79.5127 C 43.588379,191.75391 31.161621,155.08105 10,125 L 125,10 c 23.56445,20.075195 54.1167,32.194336 87.5,32.194336 33.38281,0 63.93555,-12.116211 87.5,-32.191406 z"
       id="path13"
       style="fill:#ffffff;fill-opacity:1;fill-rule:evenodd;stroke:#000000;stroke-linecap:round;stroke-linejoin:round;stroke-miterlimit:3.863693" /></g><g
     id="text1343"
     style="font-size:447.76119995px;font-style:normal;font-variant:normal;font-weight:normal;font-stretch:normal;text-align:center;line-height:125%;writing-mode:lr-tb;text-anchor:middle;font-family:Roadgeek 2005 Series D"><path
       d="m 265.57135,326.90298 c -2.3e-4,16.71652 -3.28381,32.08963 -9.85074,46.11941 -6.26888,14.0299 -15.22409,26.26869 -26.86568,36.71642 -11.64197,10.44777 -25.52256,18.65672 -41.64179,24.62686 -15.82103,5.67164 -33.2837,8.50746 -52.38806,8.50746 -13.13442,0 -26.11948,-1.49254 -38.955223,-4.47761 -12.537365,-2.98507 -24.029891,-7.16417 -34.477612,-12.53731 l 23.283582,-42.08955 c 6.268598,3.28363 14.477545,5.97019 24.626863,8.0597 10.14917,1.79109 20.74617,2.68661 31.79105,2.68656 10.74615,5e-5 20.74614,-1.64174 30,-4.92537 9.55209,-3.58204 17.76104,-8.35815 24.62686,-14.32836 7.16401,-5.97008 12.6864,-12.985 16.56717,-21.04477 3.88041,-8.35812 5.82071,-17.46259 5.82089,-27.31344 -1.8e-4,-7.46256 -1.49272,-14.32823 -4.47761,-20.59701 -2.68674,-6.26852 -6.56734,-11.7909 -11.64179,-16.56717 -4.77628,-4.77596 -10.44792,-8.5073 -17.01492,-11.19403 -6.26881,-2.6864 -13.13447,-4.02968 -20.59702,-4.02985 -5.37326,1.7e-4 -10.14938,0.44793 -14.32836,1.34329 -3.88071,0.89568 -7.61205,2.53747 -11.19403,4.92537 -3.58219,2.38821 -7.16428,5.67179 -10.74627,9.85075 -3.58218,3.88074 -7.61203,8.95536 -12.08955,15.22388 L 68.556424,292.42537 76.168364,137.5 l 172.388066,0 0,47.46268 -126.26866,0 -3.13433,49.25374 c 11.04468,-3.28338 19.70139,-5.52218 25.97015,-6.71642 6.26854,-1.19382 13.1342,-1.79084 20.59701,-1.79105 13.7312,2.1e-4 26.56701,2.68678 38.50747,8.0597 12.23862,5.37334 22.83562,12.68676 31.79104,21.9403 9.25352,9.25391 16.41769,20.00016 21.49254,32.23881 5.3729,12.23894 8.05947,25.224 8.0597,38.95522"
       id="path4228" /><path
       d="m 537.31343,287.94776 c -2.4e-4,23.88072 -2.83606,46.71652 -8.50746,68.50746 -5.67187,21.79111 -13.73156,39.40303 -24.1791,52.83582 -16.71661,22.38807 -40.8957,33.58209 -72.53732,33.58209 -21.19414,0 -38.65681,-4.32835 -52.38806,-12.98507 -13.73141,-8.6567 -25.07469,-22.23878 -34.02985,-40.74627 -6.2687,-12.83576 -11.34332,-28.35813 -15.22388,-46.56716 -3.88063,-18.50735 -5.82093,-36.71629 -5.8209,-54.62687 -3e-5,-24.77595 2.83579,-47.761 8.50747,-68.95523 5.9701,-21.19379 14.0298,-38.95496 24.1791,-53.28358 8.95515,-11.343 19.55216,-19.7012 31.79105,-25.07463 12.5372,-5.67133 27.46256,-8.50715 44.77612,-8.50746 19.10432,3.1e-4 35.37296,4.32866 48.80597,12.98508 13.43263,8.657 24.92516,22.23907 34.47761,40.74627 6.26843,13.43307 11.1938,29.1047 14.77612,47.01492 3.58185,17.91064 5.37289,36.26883 5.37313,55.07463 m -47.46268,0 c -2e-4,-17.01476 -1.49273,-32.68639 -4.47762,-47.01493 -2.98526,-14.62665 -7.46286,-27.0147 -13.43283,-37.16418 -4.77629,-7.76095 -10.29868,-13.43259 -16.56717,-17.01492 -5.9703,-3.58184 -13.43298,-5.67139 -22.38806,-6.26866 -11.64191,-0.59676 -21.3434,2.08981 -29.10447,8.0597 -7.7613,5.9704 -14.1792,15.67188 -19.25374,29.10448 -3.88068,8.95544 -6.86575,19.85095 -8.95522,32.68657 -1.79112,12.53749 -2.68664,25.07479 -2.68657,37.61194 -7e-5,16.11954 1.49246,31.64191 4.47762,46.56716 2.98498,14.92547 7.46259,27.16426 13.43283,36.71642 4.77602,7.76126 10.44766,13.58214 17.01493,17.46269 6.56704,3.88064 14.62674,5.82094 24.1791,5.82089 11.04463,5e-5 20.1491,-2.98502 27.31344,-8.95522 7.46251,-5.97009 13.73116,-15.67157 18.80597,-29.10448 1.49235,-3.88051 2.98488,-8.50737 4.47761,-13.88059 1.49235,-5.67155 2.68637,-11.49244 3.58209,-17.46269 1.19383,-6.26854 2.08936,-12.53719 2.68656,-18.80597 0.59682,-6.26852 0.89533,-12.38792 0.89553,-18.35821"
       id="path4230" /></g></svg>