<?xml version="1.0" encoding="UTF-8" standalone="no"?>
<!-- Generator: Adobe Illustrator 12.0.0, SVG Export Plug-In . SVG Version: 6.00 Build 51448)  -->

<svg
   xmlns:dc="http://purl.org/dc/elements/1.1/"
   xmlns:cc="http://creativecommons.org/ns#"
   xmlns:rdf="http://www.w3.org/1999/02/22-rdf-syntax-ns#"
   xmlns:svg="http://www.w3.org/2000/svg"
   xmlns="http://www.w3.org/2000/svg"
   xmlns:sodipodi="http://sodipodi.sourceforge.net/DTD/sodipodi-0.dtd"
   xmlns:inkscape="http://www.inkscape.org/namespaces/inkscape"
   version="1.0"
   id="Layer_1"
   width="600"
   height="600.08777"
   viewBox="0 0 384.25684 385"
   overflow="visible"
   enable-background="new 0 0 384.2568359 385"
   xml:space="preserve"
   sodipodi:version="0.32"
   inkscape:version="0.48.0 r9654"
   sodipodi:docname="I-10 (CA).svg"
   inkscape:output_extension="org.inkscape.output.svg.inkscape"
   style="overflow:visible"><metadata
   id="metadata2807"><rdf:RDF><cc:Work
       rdf:about=""><dc:format>image/svg+xml</dc:format><dc:type
         rdf:resource="http://purl.org/dc/dcmitype/StillImage" /><dc:title></dc:title></cc:Work></rdf:RDF></metadata><defs
   id="defs2805"><inkscape:perspective
   sodipodi:type="inkscape:persp3d"
   inkscape:vp_x="0 : 192.5 : 1"
   inkscape:vp_y="0 : 1000 : 0"
   inkscape:vp_z="384.25684 : 192.5 : 1"
   inkscape:persp3d-origin="192.12842 : 128.33333 : 1"
   id="perspective2809" />
	
	
	
	
	
	
	
</defs><sodipodi:namedview
   inkscape:window-height="980"
   inkscape:window-width="1280"
   inkscape:pageshadow="2"
   inkscape:pageopacity="0.0"
   guidetolerance="10.0"
   gridtolerance="10.0"
   objecttolerance="10.0"
   borderopacity="1.0"
   bordercolor="#666666"
   pagecolor="#ffffff"
   id="base"
   showgrid="false"
   inkscape:zoom="1"
   inkscape:cx="303.87767"
   inkscape:cy="339.55193"
   inkscape:window-x="12"
   inkscape:window-y="0"
   inkscape:current-layer="Layer_1"
   inkscape:window-maximized="0"
   showguides="true"
   inkscape:guide-bbox="true"><inkscape:grid
     type="xygrid"
     id="grid2902"
     visible="true"
     enabled="true" /></sodipodi:namedview>
<g
   id="g2461"
   transform="matrix(0.6417879,0,0,0.6414845,92.478999,45.36409)"><g
     transform="matrix(1.5614592,0,0,1.5586659,-144.09631,-70.716658)"
     id="g2620">
		<path
   clip-rule="evenodd"
   d="M 330.12793,0.5 C 308.87891,9.3266602 285.57324,14.199219 261.12793,14.199219 C 236.68457,14.199219 213.37793,9.3266602 192.12842,0.5 C 170.87891,9.3266602 147.57227,14.199219 123.12842,14.199219 C 98.684082,14.199219 75.37793,9.3266602 54.12793,0.5 C 20.607422,41.511719 0.5,93.915039 0.5,151.01465 C 0.5,266.59277 82.881348,362.92578 192.12842,384.5 C 301.37598,362.92578 383.75684,266.59277 383.75684,151.01465 C 383.75684,93.915039 363.64941,41.511719 330.12793,0.5 z"
   id="path2622"
   style="fill:#ffffff;fill-rule:evenodd" />
		
			<path
   clip-rule="evenodd"
   stroke-miterlimit="3.863693"
   d="M 330.12793,0.5 C 308.87891,9.3266602 285.57324,14.199219 261.12793,14.199219 C 236.68457,14.199219 213.37793,9.3266602 192.12842,0.5 C 170.87891,9.3266602 147.57227,14.199219 123.12842,14.199219 C 98.684082,14.199219 75.37793,9.3266602 54.12793,0.5 C 20.607422,41.511719 0.5,93.915039 0.5,151.01465 C 0.5,266.59277 82.881348,362.92578 192.12842,384.5 C 301.37598,362.92578 383.75684,266.59277 383.75684,151.01465 C 383.75684,93.915039 363.64941,41.511719 330.12793,0.5 z"
   id="path2624"
   style="fill:none;fill-rule:evenodd;stroke:#000000;stroke-linecap:round;stroke-linejoin:round;stroke-miterlimit:3.863693" />
	</g><g
     transform="matrix(1.5614592,0,0,1.5586659,-144.09631,-70.716658)"
     id="g2626">
		<path
   d="M 16.880859,106.5 L 367.37598,106.5 C 370.24902,120.89062 371.75684,135.77539 371.75684,151.01465 C 371.75684,259.92969 294.70313,350.87109 192.12842,372.25586 C 89.553711,350.87109 12.5,259.92969 12.5,151.01465 C 12.5,135.77539 14.007324,120.89063 16.880859,106.5 z"
   id="path2628"
   style="fill:#003882" />
	</g><g
     transform="matrix(1.5614592,0,0,1.5586659,-144.09631,-70.716658)"
     id="g2630">
		<path
   d="M 364.63574,94.5 L 19.621094,94.5 C 27.149414,65.25293 40.385254,38.301758 58.074219,14.894531 C 78.402344,22.213867 100.31152,26.199219 123.12842,26.199219 C 147.42871,26.199219 170.7002,21.678711 192.12842,13.424805 C 213.55664,21.678711 236.82812,26.199219 261.12793,26.199219 C 283.94531,26.199219 305.85449,22.213867 326.18262,14.894531 C 343.87207,38.301758 357.10742,65.25293 364.63574,94.5 z"
   id="path2632"
   style="fill:#b01c2e" />
	</g></g>

<g
   transform="scale(1.0002364,0.9997636)"
   style="font-size:57.74726104999998455px;font-style:normal;font-variant:normal;font-weight:normal;font-stretch:normal;text-align:center;line-height:125%;writing-mode:lr-tb;text-anchor:middle;fill:#ffffff;fill-opacity:1;stroke:none;font-family:Roadgeek 2005 Series C;-inkscape-font-specification:Roadgeek 2005 Series C"
   id="text2904"><path
     d="m 73.561253,78.098259 0,-38.690665 5.428242,0 0,38.690665 -5.428242,0"
     style="fill:#ffffff;fill-opacity:1"
     id="path3430" /><path
     d="m 105.04434,78.098259 -11.953686,-25.92852 0,25.92852 -5.543737,0 0,-38.690665 5.543737,0 10.625496,23.214399 0,-23.214399 5.54374,0 0,38.690665 -4.21555,0"
     style="fill:#ffffff;fill-opacity:1"
     id="path3432" /><path
     d="m 127.30501,44.5471 0,33.551159 -5.60149,0 0,-33.551159 -7.04516,0 0,-5.139506 19.69181,0 0,5.139506 -7.04516,0"
     style="fill:#ffffff;fill-opacity:1"
     id="path3434" /><path
     d="m 139.6548,78.098259 0,-38.690665 18.19038,0 0,5.428243 -12.64665,0 0,9.759287 8.02687,0 0,5.312748 -8.02687,0 0,12.762144 14.14808,0 0,5.428243 -19.69181,0"
     style="fill:#ffffff;fill-opacity:1"
     id="path3436" /><path
     d="m 181.81751,78.098259 -5.1395,-18.190387 -5.31275,0 0,18.190387 -5.54374,0 0,-38.690665 11.54945,0 c 1.50142,3.9e-5 2.8681,0.250277 4.10006,0.750714 1.27042,0.500514 2.34837,1.193481 3.23385,2.078902 0.92393,0.885493 1.6169,1.98269 2.0789,3.291594 0.50045,1.270471 0.75069,2.675653 0.75071,4.21555 -2e-5,2.309916 -0.462,4.273321 -1.38593,5.89022 -0.92398,1.616945 -2.30991,2.771889 -4.1578,3.464836 l 5.54373,18.998849 -5.71698,0 m 0.28874,-28.353905 c -2e-5,-1.501399 -0.462,-2.694841 -1.38593,-3.58033 -0.92398,-0.885426 -2.13667,-1.328154 -3.63808,-1.328187 l -5.71698,0 0,9.759287 5.71698,0 c 1.6169,2.3e-5 2.84884,-0.404207 3.69582,-1.212693 0.88544,-0.846934 1.32817,-2.059625 1.32819,-3.638077"
     style="fill:#ffffff;fill-opacity:1"
     id="path3438" /><path
     d="m 213.71025,67.53051 c -3e-5,1.578434 -0.28876,3.060613 -0.86621,4.446539 -0.539,1.347441 -1.30896,2.521634 -2.30989,3.522583 -0.96248,1.000954 -2.09817,1.809415 -3.40709,2.425385 -1.27046,0.577472 -2.65639,0.866208 -4.15781,0.866209 -1.69393,-10e-7 -3.2146,-0.327235 -4.56203,-0.981703 -1.34744,-0.654468 -2.48314,-1.539925 -3.40709,-2.656374 -0.92396,-1.116443 -1.63617,-2.406131 -2.13665,-3.869067 -0.50047,-1.462922 -0.75071,-2.983599 -0.75071,-4.562033 l 5.42824,0 c -1e-5,0.808472 0.0962,1.616933 0.28874,2.425385 0.23098,0.769971 0.55821,1.482187 0.9817,2.136648 0.46197,0.615977 1.02019,1.116453 1.67467,1.501429 0.69296,0.384987 1.52067,0.577477 2.48313,0.577473 0.73146,4e-6 1.42442,-0.153988 2.07891,-0.461979 0.69295,-0.307979 1.27042,-0.731459 1.73241,-1.270439 0.50046,-0.538968 0.88544,-1.154938 1.15495,-1.847913 0.30797,-0.731456 0.46196,-1.48217 0.46198,-2.252143 -2e-5,-1.116435 -0.23101,-2.098138 -0.69297,-2.94511 -0.462,-0.885444 -1.27046,-1.770901 -2.42538,-2.656374 -0.19251,-0.192475 -0.26951,-0.28872 -0.23099,-0.288736 0.0385,-0.03848 -0.077,-0.153977 -0.34649,-0.346484 -0.2695,-0.192474 -0.84697,-0.558206 -1.73242,-1.097198 -0.84697,-0.577454 -2.25215,-1.539907 -4.21555,-2.887363 -1.57843,-1.077927 -2.77187,-2.329116 -3.58033,-3.753572 -0.76996,-1.462905 -1.15495,-3.060577 -1.15494,-4.793023 -1e-5,-1.385903 0.25023,-2.675591 0.75071,-3.869066 0.50047,-1.231907 1.19344,-2.309855 2.0789,-3.233847 0.92395,-0.923919 1.98265,-1.636134 3.1761,-2.136648 1.19344,-0.538936 2.48312,-0.808423 3.86907,-0.808462 1.38592,3.9e-5 2.65636,0.250277 3.81132,0.750714 1.19342,0.500515 2.21362,1.193481 3.0606,2.078902 0.88544,0.885493 1.57841,1.944192 2.07891,3.176099 0.53895,1.231974 0.82768,2.579409 0.86621,4.042308 l -5.31275,0 c -0.077,-1.347405 -0.539,-2.425353 -1.38594,-3.233846 -0.84697,-0.808429 -1.88642,-1.212659 -3.11835,-1.212693 -1.27045,3.4e-5 -2.3484,0.423514 -3.23385,1.27044 -0.88546,0.846991 -1.32819,1.90569 -1.32818,3.176099 -1e-5,0.962483 0.25023,1.770944 0.75071,2.425385 0.50047,0.654496 1.46292,1.38596 2.88736,2.194396 3.73431,2.155921 6.44843,4.350314 8.14237,6.583188 1.73239,2.23291 2.5986,4.754538 2.59863,7.564891"
     style="fill:#ffffff;fill-opacity:1"
     id="path3440" /><path
     d="m 229.82895,44.5471 0,33.551159 -5.60149,0 0,-33.551159 -7.04516,0 0,-5.139506 19.69181,0 0,5.139506 -7.04516,0"
     style="fill:#ffffff;fill-opacity:1"
     id="path3442" /><path
     d="m 258.34798,78.098259 -2.71412,-10.567749 -8.31561,0 -2.54088,10.567749 -5.60148,0 9.64379,-38.690665 5.42824,0 9.6438,38.690665 -5.54374,0 m -6.92967,-27.141213 -2.71412,11.145222 5.54373,0 -2.82961,-11.145222"
     style="fill:#ffffff;fill-opacity:1"
     id="path3444" /><path
     d="m 278.89157,44.5471 0,33.551159 -5.60149,0 0,-33.551159 -7.04516,0 0,-5.139506 19.69181,0 0,5.139506 -7.04516,0"
     style="fill:#ffffff;fill-opacity:1"
     id="path3446" /><path
     d="m 291.24135,78.098259 0,-38.690665 18.19039,0 0,5.428243 -12.64665,0 0,9.759287 8.02687,0 0,5.312748 -8.02687,0 0,12.762144 14.14808,0 0,5.428243 -19.69182,0"
     style="fill:#ffffff;fill-opacity:1"
     id="path3448" /></g>


<g
   transform="scale(1.0002364,0.9997636)"
   style="font-size:34.64834976000000211px;font-style:normal;font-variant:normal;font-weight:normal;font-stretch:normal;text-align:center;line-height:100%;writing-mode:lr-tb;text-anchor:middle;fill:#ffffff;fill-opacity:1;stroke:none;font-family:Roadgeek 2005 Series D;-inkscape-font-specification:Roadgeek 2005 Series D"
   id="text2908"><path
     d="m 107.66751,137.54971 c -1.38595,3.41864 -3.71894,5.12796 -6.99896,5.12796 -1.732431,0 -3.164562,-0.33494 -4.2964,-1.00481 -1.131852,-0.66986 -2.067356,-1.72086 -2.806516,-3.153 -0.531278,-1.03944 -0.947058,-2.25213 -1.247341,-3.63807 -0.300288,-1.38593 -0.450431,-2.80651 -0.450428,-4.26175 -3e-6,-1.8479 0.230986,-3.61496 0.692967,-5.3012 0.461974,-1.6862 1.097193,-3.04903 1.905659,-4.0885 0.692961,-0.85464 1.524521,-1.50141 2.494681,-1.94031 0.993244,-0.43885 2.148188,-0.65829 3.464838,-0.65832 1.7555,3e-5 3.19918,0.38116 4.33104,1.1434 1.15493,0.76228 2.12508,1.96342 2.91046,3.60343 l -3.43018,1.45523 c -0.3234,-0.48506 -0.62369,-0.88929 -0.90086,-1.2127 -0.2541,-0.32336 -0.53129,-0.57745 -0.83156,-0.76226 -0.2772,-0.18477 -0.58904,-0.31181 -0.93551,-0.38113 -0.32339,-0.0693 -0.70453,-0.10393 -1.14339,-0.10395 -0.947068,2e-5 -1.743979,0.21946 -2.390739,0.65832 -0.623678,0.4389 -1.131853,1.17806 -1.524527,2.2175 -0.300293,0.69298 -0.531282,1.51299 -0.692967,2.46003 -0.1386,0.94707 -0.207897,1.91722 -0.207891,2.91046 -6e-6,1.27045 0.127038,2.49469 0.381132,3.67273 0.254082,1.15495 0.612114,2.102 1.074099,2.84116 0.415772,0.60058 0.900849,1.051 1.455231,1.35129 0.554364,0.30029 1.235781,0.45043 2.044252,0.45043 0.78535,0 1.46677,-0.20789 2.04425,-0.62368 0.57746,-0.43887 1.09719,-1.13184 1.55918,-2.0789 l 3.49948,1.31664 0,0"
     style="line-height:100%;font-family:Roadgeek 2005 Series D;-inkscape-font-specification:Roadgeek 2005 Series D;fill:#ffffff;fill-opacity:1"
     id="path3451" /><path
     d="m 128.97503,142.26189 -2.2868,-6.51389 -7.2415,0 -2.28679,6.51389 -3.91527,0 8.00377,-23.2144 3.63808,0 8.00377,23.2144 -3.91526,0 m -5.85558,-16.7698 -2.39073,6.51389 4.64288,0 -2.25215,-6.51389"
     style="line-height:100%;font-family:Roadgeek 2005 Series D;-inkscape-font-specification:Roadgeek 2005 Series D;fill:#ffffff;fill-opacity:1"
     id="path3453" /><path
     d="m 138.96931,142.26189 0,-23.2144 3.67272,0 0,19.78421 10.74099,0 0,3.43019 -14.41371,0"
     style="line-height:100%;font-family:Roadgeek 2005 Series D;-inkscape-font-specification:Roadgeek 2005 Series D;fill:#ffffff;fill-opacity:1"
     id="path3455" /><path
     d="m 160.04304,142.26189 0,-23.2144 3.74202,0 0,23.2144 -3.74202,0"
     style="line-height:100%;font-family:Roadgeek 2005 Series D;-inkscape-font-specification:Roadgeek 2005 Series D;fill:#ffffff;fill-opacity:1"
     id="path3457" /><path
     d="m 176.19509,122.72022 0,5.68233 6.75643,0 0,3.74202 -6.75643,0 0,10.11732 -3.67272,0 0,-23.2144 14.41371,0 0,3.67273 -10.74099,0"
     style="line-height:100%;font-family:Roadgeek 2005 Series D;-inkscape-font-specification:Roadgeek 2005 Series D;fill:#ffffff;fill-opacity:1"
     id="path3459" /><path
     d="m 208.92736,130.68934 c -2e-5,1.84792 -0.21946,3.61498 -0.65832,5.3012 -0.4389,1.68622 -1.06257,3.04905 -1.87101,4.0885 -1.29356,1.73242 -3.16457,2.59863 -5.61304,2.59863 -1.64003,0 -2.99131,-0.33494 -4.05385,-1.00481 -1.06256,-0.66986 -1.94032,-1.72086 -2.63328,-3.153 -0.48508,-0.99324 -0.87776,-2.19438 -1.17804,-3.60342 -0.30029,-1.43213 -0.45043,-2.84116 -0.45043,-4.2271 0,-1.9172 0.21944,-3.69581 0.65832,-5.33585 0.46197,-1.64 1.08564,-3.01438 1.87101,-4.12315 0.69296,-0.87774 1.51297,-1.52451 2.46003,-1.94031 0.97015,-0.43885 2.12509,-0.65829 3.46484,-0.65832 1.47831,3e-5 2.7372,0.33496 3.77667,1.0048 1.03943,0.66989 1.92874,1.72089 2.66792,3.153 0.48506,1.03947 0.86619,2.25216 1.14339,3.63808 0.27717,1.38595 0.41577,2.80653 0.41579,4.26175 m -3.67273,0 c -1e-5,-1.31663 -0.11551,-2.52932 -0.34648,-3.63808 -0.23101,-1.13183 -0.57749,-2.09043 -1.03945,-2.87581 -0.3696,-0.60055 -0.79693,-1.03943 -1.28199,-1.31664 -0.46199,-0.27717 -1.03946,-0.43886 -1.73242,-0.48508 -0.90087,-0.0462 -1.65158,0.16172 -2.25214,0.62367 -0.60058,0.462 -1.09721,1.21271 -1.48988,2.25215 -0.30029,0.69298 -0.53128,1.53609 -0.69297,2.52933 -0.1386,0.97016 -0.2079,1.94032 -0.20789,2.91046 -1e-5,1.24735 0.11549,2.44849 0.34648,3.60343 0.23099,1.15495 0.57747,2.102 1.03945,2.84116 0.36958,0.60058 0.80846,1.051 1.31664,1.35129 0.50817,0.30029 1.13184,0.45043 1.87101,0.45043 0.85465,0 1.55917,-0.23099 2.11355,-0.69297 0.57746,-0.46198 1.06254,-1.21269 1.45523,-2.25214 0.11548,-0.30028 0.23098,-0.65832 0.34649,-1.0741 0.11548,-0.43887 0.20787,-0.8893 0.27718,-1.35129 0.0924,-0.48507 0.16168,-0.97014 0.20789,-1.45523 0.0462,-0.48507 0.0693,-0.95859 0.0693,-1.42058"
     style="line-height:100%;font-family:Roadgeek 2005 Series D;-inkscape-font-specification:Roadgeek 2005 Series D;fill:#ffffff;fill-opacity:1"
     id="path3461" /><path
     d="m 229.09157,142.26189 -3.74202,-10.11732 -4.40034,0 0,10.11732 -3.67272,0 0,-23.2144 7.65728,0 c 0.90085,3e-5 1.67466,0.0578 2.32144,0.17324 0.64676,0.0924 1.25888,0.27721 1.83636,0.55438 0.50817,0.25411 0.97014,0.58904 1.38594,1.0048 0.43886,0.3927 0.80844,0.85468 1.10875,1.38593 0.32336,0.5082 0.5659,1.06257 0.72761,1.66312 0.18477,0.57749 0.27717,1.15497 0.27719,1.73242 -2e-5,0.62369 -0.0924,1.23581 -0.27719,1.83636 -0.16171,0.57749 -0.40425,1.13186 -0.72761,1.66313 -0.30031,0.50818 -0.68144,0.97016 -1.1434,1.38593 -0.43889,0.41579 -0.92397,0.73918 -1.45523,0.97015 l 4.0885,10.84494 -3.98456,0 m -0.17324,-16.70051 c -1e-5,-0.48506 -0.12706,-0.94704 -0.38113,-1.38593 -0.2541,-0.43886 -0.61213,-0.78535 -1.0741,-1.03945 -0.3003,-0.16168 -0.57748,-0.26562 -0.83156,-0.31184 -0.2541,-0.0693 -0.68143,-0.10392 -1.28199,-0.10394 l -4.40034,0 0,5.68233 4.40034,0 c 0.57746,1e-5 0.99324,-0.0231 1.24734,-0.0693 0.27718,-0.0462 0.56591,-0.15013 0.86621,-0.31184 0.46197,-0.25407 0.82,-0.60055 1.0741,-1.03945 0.25407,-0.46196 0.38112,-0.93548 0.38113,-1.42058"
     style="line-height:100%;font-family:Roadgeek 2005 Series D;-inkscape-font-specification:Roadgeek 2005 Series D;fill:#ffffff;fill-opacity:1"
     id="path3463" /><path
     d="m 252.07844,142.26189 -8.86997,-15.73035 0,15.73035 -3.67273,0 0,-23.2144 3.67273,0 8.45419,14.8295 0,-14.8295 3.67273,0 0,23.2144 -3.25695,0"
     style="line-height:100%;font-family:Roadgeek 2005 Series D;-inkscape-font-specification:Roadgeek 2005 Series D;fill:#ffffff;fill-opacity:1"
     id="path3465" /><path
     d="m 262.7775,142.26189 0,-23.2144 3.74202,0 0,23.2144 -3.74202,0"
     style="line-height:100%;font-family:Roadgeek 2005 Series D;-inkscape-font-specification:Roadgeek 2005 Series D;fill:#ffffff;fill-opacity:1"
     id="path3467" /><path
     d="m 288.30129,142.26189 -2.28679,-6.51389 -7.2415,0 -2.28679,6.51389 -3.91527,0 8.00377,-23.2144 3.63808,0 8.00377,23.2144 -3.91527,0 m -5.85557,-16.7698 -2.39073,6.51389 4.64287,0 -2.25214,-6.51389"
     style="line-height:100%;font-family:Roadgeek 2005 Series D;-inkscape-font-specification:Roadgeek 2005 Series D;fill:#ffffff;fill-opacity:1"
     id="path3469" /></g>


<g
   transform="scale(1.0002364,0.9997636)"
   style="font-size:184.79121399px;font-style:normal;font-variant:normal;font-weight:normal;font-stretch:normal;text-align:center;line-height:100%;writing-mode:lr-tb;text-anchor:middle;fill:#ffffff;fill-opacity:1;stroke:none;font-family:Roadgeek 2005 Series D;-inkscape-font-specification:Roadgeek 2005 Series D"
   id="text2912"><path
     d="m 130.66321,290.47983 0,-100.34163 -11.27227,0 0,-15.70725 1.29354,0 c 2.58706,1.1e-4 5.17414,-0.67746 7.76123,-2.03271 2.58706,-1.35501 4.74295,-3.26452 6.4677,-5.72853 l 15.70725,0 0,123.81012 -19.95745,0"
     style="line-height:100%;fill:#ffffff;font-family:Roadgeek 2005 Series D;-inkscape-font-specification:Roadgeek 2005 Series D"
     id="path4417" /><path
     d="m 265.27494,228.75956 c -1e-4,9.85559 -1.17044,19.27993 -3.51103,28.27306 -2.34078,8.9932 -5.66702,16.26164 -9.97873,21.80536 -6.89895,9.23956 -16.87766,13.85934 -29.93617,13.85934 -8.74683,0 -15.95368,-1.78631 -21.62057,-5.35894 -5.66696,-3.57263 -10.34834,-9.17795 -14.04414,-16.816 -2.58709,-5.29733 -4.68139,-11.70342 -6.2829,-19.21829 -1.60153,-7.63799 -2.4023,-15.15282 -2.40228,-22.54453 -2e-5,-10.22504 1.17033,-19.71098 3.51103,-28.45784 2.46386,-8.74669 5.7901,-16.07673 9.97873,-21.99016 3.69579,-4.68126 8.06918,-8.13069 13.12017,-10.34831 5.17411,-2.34056 11.33381,-3.5109 18.47912,-3.51103 7.88436,1.3e-4 14.59844,1.78644 20.14225,5.35895 5.54365,3.57274 10.28662,9.17807 14.22892,16.816 2.58698,5.54383 4.61968,12.01152 6.09811,19.40307 1.47823,7.39173 2.21739,14.96816 2.21749,22.72932 m -19.58787,0 c -8e-5,-7.02199 -0.61605,-13.48968 -1.84791,-19.40308 -1.23202,-6.03642 -3.07993,-11.14897 -5.54373,-15.33767 -1.97118,-3.20294 -4.25027,-5.54363 -6.83728,-7.02206 -2.46395,-1.47823 -5.5438,-2.34058 -9.23956,-2.58708 -4.80462,-0.24628 -8.80843,0.86247 -12.01143,3.32624 -3.20309,2.46399 -5.85176,6.46779 -7.94602,12.01143 -1.60156,3.69591 -2.8335,8.19249 -3.69583,13.48976 -0.73919,5.17423 -1.10877,10.34838 -1.10874,15.52246 -3e-5,6.65254 0.61594,13.05863 1.84791,19.21829 1.23191,6.15974 3.07982,11.2107 5.54374,15.15288 1.97106,3.20307 4.31175,5.60535 7.02206,7.20686 2.71022,1.60154 6.03646,2.4023 9.97873,2.40228 4.55812,2e-5 8.31554,-1.23192 11.27226,-3.69582 3.07978,-2.46386 5.66686,-6.46767 7.76123,-12.01143 0.6159,-1.60149 1.23187,-3.511 1.84792,-5.72853 0.61589,-2.34065 1.10866,-4.74293 1.47832,-7.20686 0.4927,-2.58702 0.86228,-5.1741 1.10875,-7.76123 0.24631,-2.58702 0.3695,-5.1125 0.36958,-7.57644"
     style="line-height:100%;fill:#ffffff;font-family:Roadgeek 2005 Series D;-inkscape-font-specification:Roadgeek 2005 Series D"
     id="path4419" /></g>


</svg>