<?xml version="1.0" encoding="UTF-8" standalone="no"?>
<!-- Created with Inkscape (http://www.inkscape.org/) -->
<svg
   xmlns:dc="http://purl.org/dc/elements/1.1/"
   xmlns:cc="http://web.resource.org/cc/"
   xmlns:rdf="http://www.w3.org/1999/02/22-rdf-syntax-ns#"
   xmlns:svg="http://www.w3.org/2000/svg"
   xmlns="http://www.w3.org/2000/svg"
   xmlns:sodipodi="http://sodipodi.sourceforge.net/DTD/sodipodi-0.dtd"
   xmlns:inkscape="http://www.inkscape.org/namespaces/inkscape"
   version="1.0"
   width="601"
   height="601"
   viewBox="0 0 600 599.99902"
   id="Layer_1"
   xml:space="preserve"
   sodipodi:version="0.32"
   inkscape:version="0.45"
   sodipodi:docname="I-70 (UT).svg"
   sodipodi:docbase="C:\Documents and Settings\ltljltlj\Desktop"
   inkscape:output_extension="org.inkscape.output.svg.inkscape"
   sodipodi:modified="true"><metadata
   id="metadata36"><rdf:RDF><cc:Work
       rdf:about=""><dc:format>image/svg+xml</dc:format><dc:type
         rdf:resource="http://purl.org/dc/dcmitype/StillImage" /></cc:Work></rdf:RDF></metadata><sodipodi:namedview
   inkscape:window-height="965"
   inkscape:window-width="813"
   inkscape:pageshadow="2"
   inkscape:pageopacity="0.0"
   guidetolerance="10.0"
   gridtolerance="10.0"
   objecttolerance="10.0"
   borderopacity="1.0"
   bordercolor="#666666"
   pagecolor="#ffffff"
   id="base"
   width="601px"
   height="601px"
   inkscape:zoom="1.2133333"
   inkscape:cx="299.99999"
   inkscape:cy="299.99951"
   inkscape:window-x="459"
   inkscape:window-y="-2"
   inkscape:current-layer="Layer_1" /><defs
   id="defs1659">
	
	
	
	
</defs>
<g
   transform="matrix(0.9983361,0,0,0.9983377,0.4991681,0.4986859)"
   style="fill:#ffffff;fill-opacity:1;stroke:#000000;stroke-width:0.99999928;stroke-miterlimit:4;stroke-dasharray:none;stroke-opacity:1"
   id="g1600">
		<path
   id="path1602"
   style="fill:#ffffff;fill-opacity:1;stroke:#000000;stroke-width:0.99999928;stroke-miterlimit:4;stroke-dasharray:none;stroke-opacity:1"
   d="M 80.75293,0 C 115.42871,10.583496 152.23779,16.276856 190.37695,16.276856 C 228.51563,16.276856 265.32422,10.583496 300,0.0004883 C 334.67578,10.583496 371.48438,16.276856 409.62305,16.276856 C 447.76172,16.276856 484.57129,10.583496 519.24707,0 C 569.8125,63.908203 600,144.67822 600,232.5 C 600,413.92383 471.16992,565.25391 300,599.99902 C 128.83008,565.25391 0,413.92383 0,232.5 C 0,144.67822 30.187988,63.907715 80.75293,0 z " />
		
			<path
   id="path1604"
   style="fill:#ffffff;fill-opacity:1;stroke:#000000;stroke-width:0.99999928;stroke-linecap:round;stroke-linejoin:round;stroke-miterlimit:4;stroke-dasharray:none;stroke-opacity:1"
   d="M 80.75293,0 C 115.42871,10.583496 152.23779,16.276856 190.37695,16.276856 C 228.51563,16.276856 265.32422,10.583496 300,0.0004883 C 334.67578,10.583496 371.48438,16.276856 409.62305,16.276856 C 447.76172,16.276856 484.57129,10.583496 519.24707,0 C 569.8125,63.908203 600,144.67822 600,232.5 C 600,413.92383 471.16992,565.25391 300,599.99902 C 128.83008,565.25391 0,413.92383 0,232.5 C 0,144.67822 30.187988,63.907715 80.75293,0 z " />
	</g><g
   style="fill:#003f87;fill-opacity:1;stroke:none;stroke-opacity:1"
   transform="matrix(1.0070935,0,0,1.0102847,-2.1280324,-3.66885)"
   id="g1606">
		<path
   id="path1608"
   style="fill:#003f87;fill-opacity:1;stroke:none;stroke-opacity:1"
   d="M 15,232.5 C 15,200.521 19.169434,169.51611 26.994629,139.99902 L 573.00586,139.99902 C 580.83008,169.51611 585,200.521 585,232.5 C 585,405.60547 462.82617,550.17188 300,584.67676 C 137.17432,550.17188 15,405.60547 15,232.5 z " />
	</g><g
   style="fill:#af1e2d;fill-opacity:1;stroke:none;stroke-opacity:1"
   transform="matrix(1.0125461,0,0,1.0271486,-3.7638021,-3.1017482)"
   id="g1610">
		<path
   id="path1612"
   style="fill:#af1e2d;fill-opacity:1;stroke:none;stroke-opacity:1"
   d="M 31.324219,124.99902 C 43.579102,85.77832 62.362793,49.44043 86.402832,17.259766 C 119.50439,26.392578 154.37061,31.272461 190.37695,31.272461 C 228.4375,31.272461 265.22461,25.820801 300,15.654785 C 334.77539,25.820801 371.5625,31.272461 409.62305,31.272461 C 445.62891,31.272461 480.49609,26.392578 513.59766,17.259766 C 537.63672,49.44043 556.4209,85.77832 568.67578,124.99902 L 31.324219,124.99902 L 31.324219,124.99902 z " />
	</g>




<path
   transform="scale(0.9999958,1.0000042)"
   style="font-size:372.50445557px;font-style:normal;font-variant:normal;font-weight:normal;font-stretch:normal;text-align:center;line-height:125%;writing-mode:lr-tb;text-anchor:middle;fill:#ffffff;fill-opacity:1;font-family:Roadgeek 2005 Series D"
   d="M 271.38252,370.03609 C 271.38232,381.45715 269.08411,392.25857 264.48786,402.44039 C 259.89125,412.62231 253.68247,421.56318 245.86151,429.26303 C 238.04021,436.96292 229.03871,443.04666 218.85698,447.51425 C 208.67497,451.98184 197.87355,454.21564 186.45268,454.21564 C 175.02402,454.21564 164.21881,451.98184 154.03702,447.51425 C 143.85507,443.04666 134.85357,436.96292 127.03249,429.26303 C 119.21131,421.56318 113.00443,412.62231 108.41182,402.44039 C 103.81915,392.25857 101.52283,381.45715 101.52285,370.03609 C 101.52283,358.11501 104.00482,347.37422 108.96885,337.81369 C 113.93281,328.25338 121.01123,319.74827 130.20415,312.29836 C 118.03284,299.38454 111.94721,284.23489 111.94724,266.84936 C 111.94721,257.16407 113.9347,248.03753 117.90973,239.46969 C 121.88467,230.90228 127.28633,223.32745 134.11472,216.74519 C 140.94299,210.1634 148.82665,205.00994 157.7657,201.2848 C 166.7046,197.56016 176.26692,195.69772 186.45268,195.69746 C 196.38814,195.69772 205.94856,197.56016 215.13398,201.2848 C 224.31912,205.00994 232.32782,210.1634 239.16011,216.74519 C 245.99207,223.32745 251.45625,230.90228 255.55267,239.46969 C 259.64873,248.03753 261.69685,257.16407 261.69704,266.84936 C 261.69685,275.54221 260.02008,283.67596 256.66673,291.25063 C 253.31301,298.82561 248.5328,305.84152 242.32608,312.29836 C 252.01138,319.74827 259.27548,328.37653 264.11841,338.18314 C 268.96095,347.98998 271.38232,358.60762 271.38252,370.03609 L 271.38252,370.03609 z M 221.46592,265.7353 C 221.46577,257.53542 218.05161,250.51763 211.22341,244.68189 C 204.39494,238.84656 196.13804,235.92879 186.45268,235.92858 C 176.7671,235.92879 168.5102,238.84656 161.68196,244.68189 C 154.85354,250.51763 151.43937,257.53542 151.43945,265.7353 C 151.43937,273.18526 154.85354,279.57972 161.68196,284.91869 C 168.5102,290.25799 176.7671,292.92756 186.45268,292.9274 C 196.13804,292.92756 204.39494,290.25799 211.22341,284.91869 C 218.05161,279.57972 221.46577,273.18526 221.46592,265.7353 L 221.46592,265.7353 z M 231.89031,370.77501 C 231.89016,365.561 230.64916,360.65764 228.16732,356.0649 C 225.68517,351.47236 222.39605,347.49927 218.29995,344.14563 C 214.20357,340.79219 209.42336,338.12263 203.9593,336.13692 C 198.49499,334.15143 192.65946,333.15863 186.45268,333.15852 C 180.24569,333.15863 174.47268,334.15143 169.13364,336.13692 C 163.79441,338.12263 159.07483,340.79219 154.97487,344.14563 C 150.87477,347.49927 147.64628,351.47236 145.28939,356.0649 C 142.93238,360.65764 141.7539,365.561 141.75397,370.77501 C 141.7539,376.73946 142.93238,382.32869 145.28939,387.54271 C 147.64628,392.75686 150.87477,397.3495 154.97487,401.32065 C 159.07483,405.29189 163.79441,408.39533 169.13364,410.63099 C 174.47268,412.86672 180.24569,413.98456 186.45268,413.98453 C 192.65946,413.98456 198.55752,412.86672 204.14687,410.63099 C 209.73597,408.39533 214.57871,405.29189 218.67509,401.32065 C 222.77119,397.3495 225.99779,392.75686 228.35489,387.54271 C 230.71169,382.32869 231.89016,376.73946 231.89031,370.77501 L 231.89031,370.77501 z M 497.44525,325.32601 C 497.44505,345.19726 495.08621,364.19685 490.36872,382.32483 C 485.65083,400.45295 478.94565,415.1062 470.25316,426.28463 C 456.34622,444.90531 436.23258,454.21564 409.91216,454.21564 C 392.27661,454.21564 377.74841,450.6158 366.32751,443.41611 C 354.90646,436.21643 345.47109,424.91671 338.02135,409.51693 C 332.80722,398.8387 328.58593,385.86411 325.35747,370.59312 C 322.12895,355.32229 320.51471,340.23327 320.51473,325.32601 C 320.51471,304.71988 322.93607,285.60093 327.77884,267.9691 C 332.62154,250.33764 339.2642,235.56123 347.70683,223.63984 C 355.15656,214.20469 364.0349,207.18879 374.3419,202.59211 C 384.64874,197.99593 397.00188,195.69772 411.40136,195.69746 C 427.2936,195.69772 440.82711,199.29945 452.00194,206.50268 C 463.17645,213.7064 472.73877,225.00422 480.68892,240.39618 C 485.90282,251.57484 489.99906,264.61385 492.97766,279.51324 C 495.95585,294.41297 497.44505,309.68387 497.44525,325.32601 L 497.44525,325.32601 z M 457.96442,325.32601 C 457.96426,311.17686 456.72326,298.07912 454.24142,286.03275 C 451.75927,273.9867 448.03248,263.74231 443.06106,255.29954 C 439.08972,248.84275 434.5596,244.12507 429.47069,241.14646 C 424.38152,238.16827 418.11211,236.42898 410.66245,235.92858 C 400.97686,235.43618 392.90564,237.67187 386.44875,242.63566 C 379.99168,247.59986 374.65254,255.67109 370.43133,266.84936 C 367.20276,274.29932 364.7814,283.30082 363.16722,293.85389 C 361.55291,304.40726 360.74578,314.89796 360.74585,325.32601 C 360.74578,338.74028 361.98678,351.65614 364.46885,364.07361 C 366.95078,376.49126 370.67377,386.67123 375.63784,394.61357 C 379.61654,401.0706 384.33612,405.91334 389.7966,409.14179 C 395.2569,412.37032 401.96208,413.98456 409.91216,413.98453 C 419.09733,413.98456 426.73279,411.50257 432.81855,406.53853 C 438.90404,401.57458 444.0575,393.50336 448.27894,382.32483 C 449.52168,379.09641 450.76457,375.18584 452.00762,370.59312 C 453.25036,366.00056 454.30568,361.15783 455.17359,356.0649 C 456.04118,350.97217 456.72326,345.81871 457.21982,340.60451 C 457.71606,335.39054 457.96426,330.29771 457.96442,325.32601 L 457.96442,325.32601 z "
   id="text5085" />


<path
   style="font-size:93.21589661px;font-style:normal;font-variant:normal;font-weight:normal;font-stretch:normal;text-align:center;line-height:125%;writing-mode:lr-tb;text-anchor:middle;fill:#ffffff;fill-opacity:1;font-family:Roadgeek 2005 Series C"
   d="M 108.86859,112.81165 L 108.86859,50.416161 L 117.60967,50.416161 L 117.60967,112.81165 L 108.86859,112.81165 z M 159.56965,112.81165 L 140.31942,70.997717 L 140.31942,112.81165 L 131.39104,112.81165 L 131.39104,50.416161 L 140.31942,50.416161 L 157.42977,87.853449 L 157.42977,50.416161 L 166.35816,50.416161 L 166.35816,112.81165 L 159.56965,112.81165 z M 195.41654,58.706192 L 195.41654,112.81165 L 186.39735,112.81165 L 186.39735,58.706192 L 175.05098,58.706192 L 175.05098,50.416161 L 206.7629,50.416161 L 206.7629,58.706192 L 195.41654,58.706192 z M 215.30532,112.81165 L 215.30532,50.416161 L 244.59927,50.416161 L 244.59927,59.172274 L 224.2337,59.172274 L 224.2337,74.908269 L 237.16084,74.908269 L 237.16084,83.476813 L 224.2337,83.476813 L 224.2337,104.05837 L 247.01726,104.05837 L 247.01726,112.81165 L 215.30532,112.81165 z M 283.20473,112.81165 L 274.92624,83.476813 L 266.37247,83.476813 L 266.37247,112.81165 L 257.4441,112.81165 L 257.4441,50.416161 L 276.04442,50.416161 C 278.46238,50.416224 280.67885,50.819784 282.69389,51.62684 C 284.70884,52.434021 286.44475,53.551862 287.90163,54.980368 C 289.35844,56.408988 290.47425,58.162956 291.24907,60.242277 C 292.02379,62.321703 292.41119,64.60333 292.41123,67.087165 C 292.41119,70.812085 291.66716,73.978511 290.17914,76.586455 C 288.69102,79.19447 286.45894,81.056433 283.48285,82.172347 L 292.41123,112.81165 L 283.20473,112.81165 z M 283.67015,67.087165 C 283.67012,64.665853 282.92609,62.741367 281.43805,61.313699 C 279.94996,59.886136 277.99694,59.172328 275.579,59.172274 L 266.37247,59.172274 L 266.37247,74.908269 L 275.579,74.908269 C 278.18236,74.908307 280.18173,74.240918 281.57712,72.906101 C 282.97244,71.571363 283.67012,69.631721 283.67015,67.087165 L 283.67015,67.087165 z M 334.56419,95.768339 C 334.56416,98.31476 334.11481,100.6897 333.21614,102.89316 C 332.31739,105.09665 331.07766,107.00549 329.49693,108.61973 C 327.91613,110.23398 326.08704,111.52233 324.00964,112.48482 C 321.93219,113.4473 319.68449,113.92853 317.26652,113.92853 C 314.53824,113.92853 312.08951,113.40088 309.92033,112.34556 C 307.75114,111.29024 305.92252,109.86263 304.43447,108.0627 C 302.9464,106.26279 301.79937,104.18295 300.99337,101.82315 C 300.18737,99.463388 299.78437,97.011244 299.78438,94.466716 L 308.52546,94.466716 C 308.52544,95.770251 308.69573,97.058136 309.0363,98.330376 C 309.37684,99.602646 309.90376,100.75127 310.61707,101.77627 C 311.33035,102.80129 312.22952,103.62404 313.3146,104.24452 C 314.39964,104.86503 315.71694,105.17527 317.26652,105.17526 C 318.44523,105.17527 319.57711,104.92707 320.66221,104.43067 C 321.74724,103.93429 322.67716,103.25127 323.45197,102.38161 C 324.22672,101.51197 324.84634,100.50307 325.31087,99.354907 C 325.77533,98.206766 326.00757,97.011244 326.0076,95.768339 C 326.00757,93.968443 325.63579,92.37031 324.89226,90.973934 C 324.14867,89.577602 322.84697,88.165144 320.98716,86.736554 C 320.67685,86.425859 320.55292,86.254867 320.61538,86.223579 C 320.6778,86.192343 320.49191,86.021825 320.05771,85.712023 C 319.62347,85.402277 318.70868,84.796937 317.31335,83.896004 C 315.91798,82.995129 313.63953,81.459044 310.478,79.287747 C 307.93703,77.548497 306.03083,75.514594 304.75942,73.186035 C 303.48797,70.857556 302.85226,68.296942 302.85226,65.504186 C 302.85226,63.268552 303.25526,61.173074 304.06128,59.217745 C 304.86725,57.262525 305.99866,55.539819 307.45551,54.049621 C 308.91235,52.559541 310.60192,51.395283 312.52421,50.556838 C 314.44647,49.718521 316.52295,49.29933 318.75365,49.299267 C 320.98618,49.29933 323.04799,49.70289 324.93908,50.509945 C 326.83013,51.317127 328.47286,52.434967 329.86729,53.863473 C 331.26166,55.292095 332.37747,56.999643 333.21474,58.986126 C 334.0519,60.972715 334.50173,63.1454 334.56419,65.504186 L 326.0076,65.504186 C 325.88459,63.331075 325.14102,61.592738 323.77692,60.289169 C 322.41275,58.985706 320.73833,58.333948 318.75365,58.333894 C 316.70836,58.333948 314.97291,59.016967 313.54731,60.382954 C 312.12167,61.749046 311.40886,63.456122 311.40887,65.504186 C 311.40886,67.055948 311.81186,68.359465 312.61787,69.41474 C 313.42384,70.4701 314.97339,71.649518 317.26652,72.952995 C 323.28119,76.429707 327.6678,79.968432 330.42638,83.569177 C 333.1849,87.16998 334.56416,91.236364 334.56419,95.768339 L 334.56419,95.768339 z M 360.52064,58.706192 L 360.52064,112.81165 L 351.50144,112.81165 L 351.50144,58.706192 L 340.15508,58.706192 L 340.15508,50.416161 L 371.867,50.416161 L 371.867,58.706192 L 360.52064,58.706192 z M 406.44816,112.81165 L 402.07763,95.768339 L 388.68506,95.768339 L 384.59548,112.81165 L 375.57345,112.81165 L 391.10305,50.416161 L 399.84695,50.416161 L 415.37654,112.81165 L 406.44816,112.81165 z M 395.2891,69.042441 L 390.91856,87.015068 L 399.84695,87.015068 L 395.2891,69.042441 z M 439.53084,58.706192 L 439.53084,112.81165 L 430.51165,112.81165 L 430.51165,58.706192 L 419.16529,58.706192 L 419.16529,50.416161 L 450.87721,50.416161 L 450.87721,58.706192 L 439.53084,58.706192 z M 459.41964,112.81165 L 459.41964,50.416161 L 488.71358,50.416161 L 488.71358,59.172274 L 468.34802,59.172274 L 468.34802,74.908269 L 481.27515,74.908269 L 481.27515,83.476813 L 468.34802,83.476813 L 468.34802,104.05837 L 491.13157,104.05837 L 491.13157,112.81165 L 459.41964,112.81165 z "
   id="text6060" />


<path
   transform="scale(1.0000209,0.9999791)"
   style="font-size:55.87704086px;font-style:normal;font-variant:normal;font-weight:normal;font-stretch:normal;text-align:center;line-height:125%;writing-mode:lr-tb;text-anchor:middle;fill:#ffffff;fill-opacity:1;font-family:Roadgeek 2005 Series D"
   d="M 265.87124,174.28068 C 265.87121,175.73355 265.7129,177.11166 265.39633,178.41502 C 265.0797,179.71839 264.66049,180.92882 264.13872,182.04631 C 263.65441,182.97851 263.0212,183.82629 262.23909,184.58966 C 261.45693,185.35304 260.58158,186.0141 259.61304,186.57285 C 258.64444,187.1316 257.6105,187.56927 256.51122,187.88588 C 255.41189,188.20248 254.2853,188.36078 253.13145,188.36078 C 251.97642,188.36078 250.84926,188.20248 249.74997,187.88588 C 248.65065,187.56927 247.61672,187.1316 246.64816,186.57285 C 245.67958,186.0141 244.79484,185.35304 243.99396,184.58966 C 243.19307,183.82629 242.55048,182.97851 242.0662,182.04631 C 241.54553,180.92882 241.13599,179.71839 240.83758,178.41502 C 240.53916,177.11166 240.38995,175.73355 240.38996,174.28068 L 240.38996,150.25226 L 246.31393,150.25226 L 246.31393,174.28068 C 246.31392,176.7385 246.93775,178.69383 248.18542,180.14668 C 249.43307,181.59955 251.08174,182.32597 253.13145,182.32597 C 255.17998,182.32597 256.82809,181.59955 258.07577,180.14668 C 259.32341,178.69383 259.94724,176.7385 259.94726,174.28068 L 259.94726,150.25226 L 265.87124,150.25226 L 265.87124,174.28068 L 265.87124,174.28068 z M 285.94352,155.50608 L 285.94352,187.69063 L 280.02125,187.69063 L 280.02125,155.50608 L 271.47122,155.50608 L 271.47122,150.25226 L 294.60439,150.25226 L 294.60439,155.50608 L 285.94352,155.50608 z M 322.15924,187.69063 L 318.47082,177.1864 L 306.79339,177.1864 L 303.10498,187.69063 L 296.7905,187.69063 L 309.69911,150.25226 L 315.56511,150.25226 L 328.47371,187.69063 L 322.15924,187.69063 z M 312.71567,160.64565 L 308.86014,171.15158 L 316.34781,171.15158 L 312.71567,160.64565 z M 353.69409,187.69063 L 353.69409,171.37497 L 340.06076,171.37497 L 340.06076,187.69063 L 334.13679,187.69063 L 334.13679,150.25226 L 340.06076,150.25226 L 340.06076,165.34015 L 353.69409,165.34015 L 353.69409,150.25226 L 359.61807,150.25226 L 359.61807,187.69063 L 353.69409,187.69063 z "
   id="text2177" />

</svg>