<?xml version="1.0" encoding="utf-8"?>
<!-- Generator: Adobe Illustrator 12.0.0, SVG Export Plug-In . SVG Version: 6.00 Build 51448)  -->
<!DOCTYPE svg PUBLIC "-//W3C//DTD SVG 1.1//EN" "http://www.w3.org/Graphics/SVG/1.1/DTD/svg11.dtd" [
	<!ENTITY ns_svg "http://www.w3.org/2000/svg">
	<!ENTITY ns_xlink "http://www.w3.org/1999/xlink">
]>
<svg  version="1.1" id="Layer_1" xmlns="&ns_svg;" xmlns:xlink="&ns_xlink;" width="448" height="384" viewBox="0 0 448 384"
	 overflow="visible" enable-background="new 0 0 448 384" xml:space="preserve">
<g>
	<g>
		<path fill-rule="evenodd" clip-rule="evenodd" fill="#FFFFFF" d="M224,384
			c-24.0244141-19.390625-54.5898438-31.0019531-87.8681641-31.0019531L105,353C47.0092773,353,0,305.9902344,0,248
			c0-21.9492188,6.793457-42.4121094,18.3095703-59.2612305C26.9482422,176.0732422,32,160.7636719,32,144.2758789
			C32,118.25,19.4160156,95.1645508,0,80.7714844L79.9990234,0C100.5126953,13.9814453,125.3017578,22.1547852,152,22.1547852
			c26.6977539,0,51.4863281-8.1728516,72-22.1542969c20.5136719,13.9814453,45.3027344,22.1542969,72,22.1542969
			c26.6982422,0,51.4873047-8.1733398,72.0009766-22.1547852L448,80.7714844C428.5839844,95.1645508,416,118.25,416,144.2758789
			c0,16.487793,5.0517578,31.7973633,13.6904297,44.4628906C441.2070313,205.5878906,448,226.0507813,448,248
			c0,57.9902344-47.0097656,105-105,105l-31.1318359-0.0019531C278.5898438,352.9980469,248.0244141,364.609375,224,384z"/>
		
			<path fill-rule="evenodd" clip-rule="evenodd" fill="none" stroke="#000000" stroke-width="0" stroke-linecap="round" stroke-linejoin="round" stroke-miterlimit="3.863693" d="
			M224,384c-24.0244141-19.390625-54.5898438-31.0019531-87.8681641-31.0019531L105,353C47.0092773,353,0,305.9902344,0,248
			c0-21.9492188,6.793457-42.4121094,18.3095703-59.2612305C26.9482422,176.0732422,32,160.7636719,32,144.2758789
			C32,118.25,19.4160156,95.1645508,0,80.7714844L79.9990234,0C100.5126953,13.9814453,125.3017578,22.1547852,152,22.1547852
			c26.6977539,0,51.4863281-8.1728516,72-22.1542969c20.5136719,13.9814453,45.3027344,22.1542969,72,22.1542969
			c26.6982422,0,51.4873047-8.1733398,72.0009766-22.1547852L448,80.7714844C428.5839844,95.1645508,416,118.25,416,144.2758789
			c0,16.487793,5.0517578,31.7973633,13.6904297,44.4628906C441.2070313,205.5878906,448,226.0507813,448,248
			c0,57.9902344-47.0097656,105-105,105l-31.1318359-0.0019531C278.5898438,352.9980469,248.0244141,364.609375,224,384z"/>
	</g>
	<g>
		<path fill-rule="evenodd" clip-rule="evenodd" d="M104.9995117,332C58.6069336,332,21,294.3925781,21,248
			c0-17.5673828,5.4345703-33.9316406,14.6523438-47.4199219C46.5942383,184.5385742,53,165.1191406,53,144.2758789
			c0-24.293457-8.6782227-46.5727539-23.065918-63.8852539l53.4360352-53.9521484
			C103.9238281,37.1201172,127.2792969,43.1547852,152,43.1547852c26.0830078,0,50.6455078-6.7182617,72-18.5229492
			c21.3544922,11.8046875,45.9169922,18.5229492,72,18.5229492c24.7207031,0,48.0761719-6.034668,68.6298828-16.7163086
			l53.4355469,53.9521484C403.6777344,97.7036133,395,119.9829102,395,144.2758789
			c0,20.8432617,6.4052734,40.2626953,17.3476563,56.3041992C421.5654297,214.0683594,427,230.4316406,427,248
			c0,46.3925781-37.6074219,84-84,84l-31.1308594-0.0019531c-32.3964844,0-62.5996094,9.5878906-87.8691406,26.0722656
			c-25.2700195-16.484375-55.4731445-26.0722656-87.8686523-26.0722656L104.9995117,332z M136.1313477,343.9980469L105,344
			c-53.0205078,0-96-42.9804688-96-96c0-20.0722656,6.2109375-38.7773438,16.7421875-54.1865234
			C35.3681641,179.7006836,41,162.6298828,41,144.2758789c0-25.2836914-10.6689453-48.0761719-27.7255859-64.1176758
			l67.9951172-68.6513672C101.9204102,23.9785156,126.1328125,31.1547852,152,31.1547852
			c26.3984375,0,51.074707-7.4746094,72-20.4238281c20.9257813,12.9492188,45.6015625,20.4238281,72,20.4238281
			c25.8671875,0,50.0800781-7.1762695,70.7304688-19.6479492l67.9951172,68.6513672
			C417.6689453,96.199707,407,118.9921875,407,144.2758789c0,18.3540039,5.6318359,35.4248047,15.2578125,49.5375977
			C432.7890625,209.2226563,439,227.9277344,439,248c0,53.0195313-42.9794922,96-96,96l-31.1318359-0.0019531
			c-32.8486328,0-63.2333984,10.640625-87.8681641,28.6542969
			C199.3652344,354.6386719,168.9804688,343.9980469,136.1313477,343.9980469z"/>
	</g>
	<g>
		<g>
			<path fill-rule="evenodd" clip-rule="evenodd" d="M219.340332,94.3256836c0,5.7207031-1.7675781,10.4301758-5.3022461,14.1279297
				C210.5029297,112.1513672,205.9912109,114,200.5029297,114s-10-1.8486328-13.534668-5.5463867
				s-5.3022461-8.4072266-5.3022461-14.1279297V66.4189453h8.3720703v27.9067383
				c0,2.3720703,0.4882813,4.3955078,1.4648438,6.0698242c2.046875,3.3955078,5.046875,5.0927734,9,5.0927734
				c4,0,7-1.6972656,9-5.0927734c1.0234375-1.6743164,1.5351563-3.6977539,1.5351563-6.0698242V66.4189453h8.3022461V94.3256836z"/>
		</g>
		<g>
			<path fill-rule="evenodd" clip-rule="evenodd" d="M266.3339844,99.5136719c0,4.6889648-2.1855469,8.3330078-6.5576172,10.9335938
				c-3.4423828,2.0893555-7.3720703,3.1342773-11.7910156,3.1342773c-7.6748047,0-14.1162109-2.9853516-19.3251953-8.956543
				l6.6972656-5.2060547c3.3027344,3.9067383,7.4648438,5.8603516,12.4882813,5.8603516
				c2.9306641,0,5.3603516-0.5805664,7.2910156-1.7412109c1.9296875-1.1606445,2.8945313-2.5996094,2.8945313-4.3178711
				c0-1.949707-1-3.3657227-3-4.2485352c-0.3710938-0.1860352-2.2324219-0.7890625-5.5810547-1.8100586l-2.0927734-0.6269531
				l-2.1630859-0.4873047l-2.3017578-0.6967773c-4.5585938-1.2998047-7.6054688-2.809082-9.1396484-4.5268555
				c-1.9541016-2.2285156-2.9306641-4.8520508-2.9306641-7.8696289c0-3.8540039,1.4765625-6.9765625,4.4306641-9.3676758
				C238.2060547,67.1958008,242.078125,66,246.8691406,66c6.9296875,0,12.7207031,2.4057617,17.3720703,7.2167969
				l-6.2099609,5.5507813c-2.9296875-3.0698242-6.6503906-4.6044922-11.1621094-4.6044922
				c-5.0234375,0-7.5351563,1.578125-7.5351563,4.7353516c0,1.300293,0.5117188,2.3100586,1.5351563,3.0297852
				c1.0234375,0.7202148,2.953125,1.4047852,5.7910156,2.0546875c6.1855469,1.3461914,10.5117188,2.6464844,12.9765625,3.8999023
				c2.0458984,1.0678711,3.6738281,2.6347656,4.8828125,4.7006836
				C265.7294922,94.6499023,266.3339844,96.9599609,266.3339844,99.5136719z"/>
		</g>
	</g>
</g>
<g>
	<path fill-rule="evenodd" clip-rule="evenodd" d="M159.0268555,248.2050781
		c0,15.8535156-4.9638672,28.7832031-14.8920898,38.7871094C134.2070313,296.9980469,121.3935547,302,105.6933594,302
		c-12.4672852,0-23.3574219-3.7714844-32.6694336-11.3125c-9.3120117-7.5429688-15.5844727-17.546875-18.8168945-30.015625
		l23.7807617-6.9257813c4.0019531,15.5458984,13.6220703,23.3183594,28.8603516,23.3183594
		c8.1577148,0,14.8149414-2.578125,19.9711914-7.734375s7.734375-11.6591797,7.734375-19.5087891
		c0-8.9267578-2.9248047-15.3916016-8.7734375-19.3935547c-2.4628906-1.8476563-7.6962891-3.0019531-15.7001953-3.4638672
		c0,0-0.9233398,0-2.7705078,0v-24.2421875H113.3125c10.1586914,0,15.2382813-5.0791016,15.2382813-15.2382813
		c0-6.0029297-2.1552734-10.9282227-6.4648438-14.7763672c-4.3095703-3.8476563-9.5429688-5.7719727-15.699707-5.7719727
		c-10.3129883,0-18.0854492,5.0024414-23.3188477,15.0073242l-22.8574219-8.5424805
		c4.0019531-9.8510742,10.0820313-17.546875,18.2397461-23.0878906C86.6074219,144.7705078,95.6884766,142,105.6933594,142
		c13.0834961,0,24.2426758,4.5791016,33.4775391,13.7373047c9.2353516,9.1582031,13.8530273,20.2792969,13.8530273,33.3623047
		c0,8.3125-2.9243164,16.7773438-8.7734375,25.3964844c5.6948242,5.234375,9.581543,10.2363281,11.659668,15.0078125
		C157.987793,234.2753906,159.0268555,240.5087891,159.0268555,248.2050781z"/>
	<path fill-rule="evenodd" clip-rule="evenodd" d="M276.78125,191.1777344c0,21.2402344-5.4638672,41.9433594-16.3925781,62.1064453
		C249.4609375,273.4472656,234.9921875,289.6865234,216.9833984,302l-12.0058594-20.7792969
		c16.6235352-13.0830078,29.1679688-28.7832031,37.6337891-47.0996094
		c-7.6962891,1.3857422-13.8535156,2.078125-18.4707031,2.078125c-14.46875,0-26.8588867-4.6171875-37.171875-13.8535156
		c-10.3125-9.234375-15.46875-20.3164063-15.46875-33.2460938c0-13.2368164,5.0791016-24.3964844,15.2382813-33.4775391
		C196.8969727,146.5410156,209.3642578,142,224.140625,142c14.9306641,0,27.4365234,4.6948242,37.5175781,14.0839844
		C271.7402344,165.4731445,276.78125,177.1708984,276.78125,191.1777344z M252.3085938,189.0996094
		c0-6.0029297-2.8095703-11.1977539-8.4277344-15.5844727s-12.1982422-6.5800781-19.7402344-6.5800781
		c-7.6958008,0-14.2373047,2.1552734-19.625,6.4648438c-5.3867188,4.3095703-8.0805664,9.5429688-8.0805664,15.699707
		c0,6.15625,2.6938477,11.390625,8.0805664,15.6992188c5.3876953,4.3105469,11.9291992,6.4648438,19.625,6.4648438
		c7.8496094,0,14.5068359-2.1542969,19.9707031-6.4648438C249.5761719,200.4902344,252.3085938,195.2558594,252.3085938,189.0996094
		z"/>
	<path fill-rule="evenodd" clip-rule="evenodd" d="M393.7929688,242.2011719
		c0,17.2402344-6.3496094,31.515625-19.0478516,42.8291016S345.9238281,302,326.3759766,302
		c-13.6992188,0-26.3203125-2.9238281-37.8642578-8.7734375l11.7744141-21.703125
		c7.234375,3.6943359,17.0087891,5.5410156,29.3212891,5.5410156c11.2363281,0,20.6640625-3.3085938,28.2832031-9.9277344
		c7.6191406-6.6181641,11.4287109-14.9296875,11.4287109-24.9355469c0-7.5410156-2.6933594-13.9287109-8.0810547-19.1621094
		c-5.3867188-5.2333984-11.9287109-7.8496094-19.625-7.8496094c-5.3867188,0-9.734375,1.0771484-13.0439453,3.2324219
		c-3.3095703,2.1542969-7.2724609,6.4638672-11.890625,12.9287109l-24.4736328-6.9267578l3.9257813-79.8837891h88.8886719
		v24.4726563h-65.1083984l-1.6162109,25.3974609c10.1582031-2.7705078,18.0859375-4.15625,23.78125-4.15625
		c14.1601563,0,26.3203125,5.1181641,36.4785156,15.3535156C388.7128906,215.84375,393.7929688,228.0410156,393.7929688,242.2011719
		z"/>
</g>
</svg>
