<?xml version="1.0" encoding="UTF-8" standalone="no"?>
<!-- Created with Inkscape (http://www.inkscape.org/) -->
<svg
   xmlns:dc="http://purl.org/dc/elements/1.1/"
   xmlns:cc="http://web.resource.org/cc/"
   xmlns:rdf="http://www.w3.org/1999/02/22-rdf-syntax-ns#"
   xmlns:svg="http://www.w3.org/2000/svg"
   xmlns="http://www.w3.org/2000/svg"
   xmlns:sodipodi="http://sodipodi.sourceforge.net/DTD/sodipodi-0.dtd"
   xmlns:inkscape="http://www.inkscape.org/namespaces/inkscape"
   version="1.0"
   width="751"
   height="601"
   viewBox="0 0 750 599.99902"
   id="Layer_1"
   xml:space="preserve"
   sodipodi:version="0.32"
   inkscape:version="0.45"
   sodipodi:docname="I-215.svg"
   sodipodi:docbase="C:\Documents and Settings\ltljltlj\Desktop\Signs\Interstate Shields"
   inkscape:output_extension="org.inkscape.output.svg.inkscape"
   sodipodi:modified="true"><metadata
   id="metadata36"><rdf:RDF><cc:Work
       rdf:about=""><dc:format>image/svg+xml</dc:format><dc:type
         rdf:resource="http://purl.org/dc/dcmitype/StillImage" /></cc:Work></rdf:RDF></metadata><sodipodi:namedview
   inkscape:window-height="966"
   inkscape:window-width="1046"
   inkscape:pageshadow="2"
   inkscape:pageopacity="0.0"
   guidetolerance="10.0"
   gridtolerance="10.0"
   objecttolerance="10.0"
   borderopacity="1.0"
   bordercolor="#666666"
   pagecolor="#ffffff"
   id="base"
   width="751px"
   height="601px"
   inkscape:zoom="1.2828155"
   inkscape:cx="374.56672"
   inkscape:cy="299.99893"
   inkscape:window-x="-3"
   inkscape:window-y="-3"
   inkscape:current-layer="Layer_1" /><defs
   id="defs62">
	
	
	
	
</defs>
<g
   transform="matrix(0.9986685,0,0,0.9986701,0.4993342,0.3989715)"
   id="g5"
   style="fill:#ffffff;fill-opacity:1;stroke:#000000;stroke-width:0.99999899;stroke-miterlimit:4;stroke-dasharray:none;stroke-opacity:1">
		<path
   id="path7"
   style="fill:#ffffff;fill-opacity:1;stroke:#000000;stroke-width:0.99999899;stroke-miterlimit:4;stroke-dasharray:none;stroke-opacity:1"
   d="M 38.915039,0 C 92.236328,15.525391 148.625,23.849609 206.95801,23.849609 C 265.29053,23.849609 321.6792,15.525391 375,0.0004883 C 428.32031,15.525391 484.70898,23.849609 543.04199,23.849609 C 601.375,23.849609 657.76367,15.525391 711.08398,0 C 736.06445,54.121094 750,114.3877 750,177.90918 C 750,395.71777 586.16016,575.25391 375,599.99902 C 163.83887,575.25391 0,395.71777 0,177.90918 C 0,114.3877 13.935059,54.121094 38.915039,0 z " />
		
			<path
   id="path9"
   style="fill:#ffffff;fill-opacity:1;stroke:#000000;stroke-width:0.99999899;stroke-linecap:round;stroke-linejoin:round;stroke-miterlimit:4;stroke-dasharray:none;stroke-opacity:1"
   d="M 38.915039,0 C 92.236328,15.525391 148.625,23.849609 206.95801,23.849609 C 265.29053,23.849609 321.6792,15.525391 375,0.0004883 C 428.32031,15.525391 484.70898,23.849609 543.04199,23.849609 C 601.375,23.849609 657.76367,15.525391 711.08398,0 C 736.06445,54.121094 750,114.3877 750,177.90918 C 750,395.71777 586.16016,575.25391 375,599.99902 C 163.83887,575.25391 0,395.71777 0,177.90918 C 0,114.3877 13.935059,54.121094 38.915039,0 z " />
	</g><g
   transform="matrix(1.0056032,0,0,1.0101352,-2.1013652,-3.7018951)"
   id="g11"
   style="fill:#003f87;fill-opacity:1">
		<path
   id="path13"
   style="fill:#003f87;fill-opacity:1"
   d="M 15,177.90918 C 15,165.12744 15.584961,152.48242 16.729004,139.99902 L 733.27051,139.99902 C 734.41504,152.48242 735,165.12744 735,177.90918 C 735,387.42285 577.85547,560.22852 375,584.89062 C 172.14453,560.22852 15,387.42285 15,177.90918 z " />
	</g><g
   transform="matrix(1.00604,0,0,1.0270827,-2.2645005,-3.1522955)"
   id="g15"
   style="fill:#af1e2d;fill-opacity:1">
		<path
   id="path17"
   style="fill:#af1e2d;fill-opacity:1"
   d="M 47.37793,17.942871 C 98.270019,31.578125 151.76562,38.849121 206.95996,38.849121 C 265.2207,38.849121 321.58936,30.748047 375,15.611328 C 428.41113,30.748047 484.7793,38.849121 543.04004,38.849121 C 598.23438,38.849121 651.73047,31.578613 702.62109,17.942871 C 716.88281,51.567383 726.78516,87.489258 731.61719,124.99902 L 18.381836,124.99902 C 23.214844,87.489258 33.116211,51.567383 47.37793,17.942871 z " />
	</g>



<path
   style="font-size:93.28099823px;font-style:normal;font-variant:normal;font-weight:normal;font-stretch:normal;text-align:center;line-height:125%;writing-mode:lr-tb;text-anchor:middle;fill:#ffffff;fill-opacity:1;font-family:Roadgeek 2005 Series C"
   d="M 183.53777,112.74918 L 183.53777,50.332876 L 192.29397,50.332876 L 192.29397,112.74918 L 183.53777,112.74918 z M 234.32652,112.74918 L 215.04301,70.921299 L 215.04301,112.74918 L 206.09918,112.74918 L 206.09918,50.332876 L 215.04301,50.332876 L 232.18297,87.782657 L 232.18297,50.332876 L 241.1268,50.332876 L 241.1268,112.74918 L 234.32652,112.74918 z M 270.23545,58.625673 L 270.23545,112.74918 L 261.20065,112.74918 L 261.20065,58.625673 L 249.83466,58.625673 L 249.83466,50.332876 L 281.60144,50.332876 L 281.60144,58.625673 L 270.23545,58.625673 z M 290.15862,112.74918 L 290.15862,50.332876 L 319.50325,50.332876 L 319.50325,59.09191 L 299.10244,59.09191 L 299.10244,74.833157 L 312.05195,74.833157 L 312.05195,83.404561 L 299.10244,83.404561 L 299.10244,103.99298 L 321.9254,103.99298 L 321.9254,112.74918 L 290.15862,112.74918 z M 358.17549,112.74918 L 349.88269,83.404561 L 341.31412,83.404561 L 341.31412,112.74918 L 332.3703,112.74918 L 332.3703,50.332876 L 351.0028,50.332876 C 353.42494,50.332938 355.64525,50.736632 357.66375,51.543959 C 359.6822,52.351409 361.42112,53.469623 362.88052,54.898605 C 364.33984,56.327702 365.45758,58.082256 366.23374,60.16227 C 367.00981,62.24239 367.39787,64.524779 367.39791,67.009442 C 367.39787,70.735604 366.65256,73.903088 365.16196,76.511902 C 363.67129,79.120788 361.43533,80.983372 358.4541,82.099661 L 367.39791,112.74918 L 358.17549,112.74918 z M 358.64173,67.009442 C 358.6417,64.587322 357.89637,62.662194 356.40576,61.234051 C 354.9151,59.806011 352.9587,59.091964 350.53656,59.09191 L 341.31412,59.09191 L 341.31412,74.833157 L 350.53656,74.833157 C 353.14444,74.833195 355.14727,74.165584 356.54506,72.830321 C 357.9428,71.495138 358.6417,69.554847 358.64173,67.009442 L 358.64173,67.009442 z M 409.6238,95.700188 C 409.62376,98.247459 409.17363,100.62319 408.27342,102.82739 C 407.37312,105.03161 406.13124,106.94111 404.54777,108.55587 C 402.96423,110.17066 401.13196,111.45945 399.05098,112.42224 C 396.96994,113.38505 394.71835,113.86645 392.29621,113.86645 C 389.56319,113.86645 387.11023,113.33861 384.93731,112.28294 C 382.76436,111.22727 380.93257,109.79918 379.44194,107.99867 C 377.9513,106.19815 376.80229,104.11761 375.9949,101.75704 C 375.18751,99.396471 374.78382,96.943507 374.78382,94.398132 L 383.54002,94.398132 C 383.54001,95.702101 383.71058,96.990416 384.05174,98.26308 C 384.39288,99.535774 384.92071,100.68479 385.63525,101.71013 C 386.34975,102.73548 387.25049,103.5585 388.33744,104.17919 C 389.42436,104.7999 390.74394,105.11026 392.29621,105.11025 C 393.47695,105.11026 394.61079,104.86198 395.69776,104.3654 C 396.78467,103.86886 397.7162,103.18561 398.49235,102.31567 C 399.26844,101.44574 399.88914,100.4365 400.35446,99.287953 C 400.81972,98.139428 401.05236,96.943507 401.05239,95.700188 C 401.05236,93.899691 400.67995,92.301024 399.93513,90.904183 C 399.19025,89.507385 397.8863,88.094455 396.02327,86.665389 C 395.71243,86.35459 395.58828,86.18354 395.65086,86.152242 C 395.71337,86.120997 395.52716,85.950421 395.09222,85.640517 C 394.65723,85.330665 393.74087,84.725124 392.34312,83.823891 C 390.94533,82.922716 388.66293,81.386119 385.49595,79.214097 C 382.95057,77.474265 381.04108,75.439684 379.76746,73.110348 C 378.49382,70.781091 377.85701,68.219622 377.85702,65.425936 C 377.85701,63.189556 378.2607,61.093379 379.0681,59.137398 C 379.87548,57.181525 381.00886,55.458243 382.46824,53.967548 C 383.92759,52.476971 385.62007,51.312324 387.54568,50.473601 C 389.47127,49.635002 391.55134,49.215671 393.7859,49.215607 C 396.0223,49.215671 398.08768,49.619366 399.98204,50.426692 C 401.87634,51.234143 403.52192,52.352357 404.91877,53.781337 C 406.31556,55.210436 407.4333,56.918555 408.272,58.9057 C 409.11062,60.892952 409.56122,63.066363 409.6238,65.425936 L 401.05239,65.425936 C 400.92917,63.2521 400.18433,61.513183 398.81786,60.209179 C 397.45135,58.90528 395.77402,58.253304 393.7859,58.25325 C 391.73707,58.253304 389.99863,58.936552 388.57055,60.302995 C 387.14245,61.669543 386.4284,63.377188 386.42842,65.425936 C 386.4284,66.978216 386.83209,68.282167 387.63951,69.337794 C 388.44687,70.393507 389.99911,71.573317 392.29621,72.877229 C 398.32127,76.355103 402.71547,79.895009 405.47882,83.496955 C 408.24211,87.09896 409.62376,91.166701 409.6238,95.700188 L 409.6238,95.700188 z M 435.62513,58.625673 L 435.62513,112.74918 L 426.59034,112.74918 L 426.59034,58.625673 L 415.22435,58.625673 L 415.22435,50.332876 L 446.99113,50.332876 L 446.99113,58.625673 L 435.62513,58.625673 z M 481.6321,112.74918 L 477.25401,95.700188 L 463.83827,95.700188 L 459.74164,112.74918 L 450.70398,112.74918 L 466.26044,50.332876 L 475.01948,50.332876 L 490.57593,112.74918 L 481.6321,112.74918 z M 470.45374,68.965371 L 466.07565,86.943996 L 475.01948,86.943996 L 470.45374,68.965371 z M 514.77201,58.625673 L 514.77201,112.74918 L 505.73722,112.74918 L 505.73722,58.625673 L 494.37123,58.625673 L 494.37123,50.332876 L 526.13801,50.332876 L 526.13801,58.625673 L 514.77201,58.625673 z M 534.6952,112.74918 L 534.6952,50.332876 L 564.03982,50.332876 L 564.03982,59.09191 L 543.63903,59.09191 L 543.63903,74.833157 L 556.58852,74.833157 L 556.58852,83.404561 L 543.63903,83.404561 L 543.63903,103.99298 L 566.46199,103.99298 L 566.46199,112.74918 L 534.6952,112.74918 z "
   id="text7023" />

<path
   style="font-size:373.12701416px;font-style:normal;font-variant:normal;font-weight:normal;font-stretch:normal;text-align:center;line-height:125%;writing-mode:lr-tb;text-anchor:middle;fill:#ffffff;fill-opacity:1;font-family:Roadgeek 2005 Series C"
   d="M 128.65346,440.43707 C 129.14621,431.99164 129.70343,424.66254 130.32511,418.44974 C 130.94674,412.23699 131.6916,406.64778 132.55966,401.68206 C 133.42769,396.71644 134.54591,391.93461 135.91433,387.33659 C 137.28272,382.73865 138.96005,377.70665 140.94634,372.24055 C 151.13541,346.16138 164.5503,325.4193 181.19104,310.01423 C 182.68446,308.77105 184.2386,307.46709 185.85346,306.10234 C 187.46818,304.73786 189.45445,303.18561 191.81227,301.44559 C 194.16994,299.70585 197.02615,297.5945 200.38089,295.11151 C 203.73548,292.62883 207.89565,289.64753 212.86142,286.16762 C 221.06414,280.45157 226.59272,275.6072 229.44715,271.6345 C 232.30134,267.66213 233.7285,262.57137 233.72862,256.36221 C 233.7285,251.63932 232.79791,247.16643 230.93684,242.94353 C 229.07556,238.721 226.59272,234.99486 223.48834,231.76506 C 220.38373,228.53569 216.65759,225.98842 212.30989,224.12324 C 207.96199,222.25848 203.42656,221.326 198.70356,221.32578 C 193.73781,221.326 189.14361,222.25848 184.92098,224.12324 C 180.69819,225.98842 177.03269,228.53569 173.92448,231.76506 C 170.81614,234.99486 168.33141,238.721 166.47028,242.94353 C 164.60905,247.16643 163.67846,251.63932 163.67851,256.36221 L 128.65346,256.36221 C 128.89604,246.67365 130.81976,237.54402 134.42463,228.9733 C 138.02946,220.40299 142.93636,212.9488 149.14539,206.61072 C 155.35433,200.27309 162.68154,195.30362 171.12702,191.70232 C 179.57239,188.10152 188.76456,186.30098 198.70356,186.30072 C 208.39221,186.30098 217.39866,188.16406 225.72289,191.88995 C 234.0469,195.61634 241.376,200.64646 247.71021,206.9803 C 254.04414,213.31459 259.01171,220.70624 262.61291,229.15524 C 266.21382,237.60467 268.01434,246.67365 268.0145,256.36221 C 268.01434,276.23264 260.93354,292.62693 246.77204,305.54512 C 245.52858,306.53838 244.22462,307.46897 242.86014,308.33688 C 241.4954,309.20507 240.19144,310.26074 238.94826,311.50392 L 230.37394,317.83801 L 221.43573,323.80819 L 211.74698,330.88142 C 207.77435,333.86094 203.86247,337.40134 200.01131,341.50266 C 196.15999,345.60417 192.43385,350.07707 188.83286,354.92134 C 185.23173,359.76581 182.0647,364.85845 179.33175,370.19933 C 176.59867,375.54033 174.36033,380.81871 172.61672,386.03451 C 171.13076,389.26415 170.07697,392.18289 169.45537,394.79078 C 168.83366,397.39875 168.02627,400.93915 167.03318,405.41202 L 268.0145,405.41202 L 268.0145,440.43707 L 128.65346,440.43707 z M 429.77794,225.80626 C 418.60314,238.47461 408.66802,252.8201 399.97253,268.84274 C 391.2768,284.8657 383.45304,302.93733 376.5012,323.05765 C 369.79177,342.18507 364.94551,360.87834 361.9624,379.13754 C 358.97913,397.39685 356.99095,417.83001 355.99789,440.43707 L 320.97284,440.43707 L 320.97284,435.21743 C 320.9728,429.00844 321.34618,421.80444 322.09296,413.60537 C 322.83966,405.40637 323.89535,396.89839 325.26,388.08143 C 326.62457,379.26458 328.17681,370.32259 329.91674,361.25542 C 331.65657,352.18842 333.64473,343.55346 335.88124,335.35053 C 338.6104,325.4193 341.52726,315.92009 344.63181,306.85287 C 347.73625,297.78592 351.21411,288.90458 355.06541,280.20881 C 358.91658,271.51337 363.20183,262.75522 367.92119,253.93434 C 372.6404,245.11383 378.10831,235.73781 384.32498,225.80626 L 290.41689,225.80626 L 290.41689,190.76984 L 429.77794,190.76984 L 429.77794,225.80626 L 429.77794,225.80626 z M 621.34679,315.23387 C 621.34662,334.3613 620.29094,350.63239 618.17975,364.04719 C 616.06822,377.46216 612.40083,390.13219 607.17756,402.05733 C 600.96843,416.96197 593.20719,427.82957 583.89387,434.66021 C 574.58026,441.49085 562.84271,444.90617 548.68117,444.90617 C 533.77649,444.90617 521.66557,441.49085 512.34837,434.66021 C 503.03104,427.82957 495.26793,416.96197 489.05898,402.05733 C 483.8431,389.88201 480.17949,377.14943 478.06816,363.85956 C 475.95678,350.56984 474.90111,334.3613 474.90113,315.23387 C 474.90111,296.35687 475.95678,280.14833 478.06816,266.60817 C 480.17949,253.06838 483.8431,240.33579 489.05898,228.4104 C 495.5181,213.50602 503.40631,202.7616 512.72364,196.1771 C 522.04084,189.59311 534.02667,186.30098 548.68117,186.30072 C 563.08531,186.30098 574.88351,189.59311 584.07582,196.1771 C 593.26784,202.7616 600.96843,213.75619 607.17756,229.16093 C 609.66404,235.37012 611.83982,241.57911 613.70495,247.78789 C 615.56976,253.99707 617.06137,260.51688 618.17975,267.34733 C 619.29781,274.17815 620.10521,281.50725 620.60193,289.33466 C 621.09833,297.16238 621.34662,305.79544 621.34679,315.23387 L 621.34679,315.23387 z M 587.0609,315.23387 C 587.06076,308.27448 586.87502,301.9385 586.50369,296.22596 C 586.13207,290.51368 585.63551,285.23528 585.01398,280.39077 C 584.39219,275.54655 583.5848,270.88981 582.59179,266.42054 C 581.59852,261.95161 580.4803,257.48062 579.23712,253.00754 C 576.00741,241.8255 571.97045,233.74965 567.12618,228.77998 C 562.2817,223.81074 556.13337,221.326 548.68117,221.32578 C 533.27613,221.326 522.71935,231.63639 517.0108,252.257 C 514.02374,261.69575 511.97304,271.19685 510.85866,280.76034 C 509.74417,290.32415 509.18695,302.0617 509.18701,315.97304 C 509.18695,322.6825 509.3727,328.83272 509.74423,334.42373 C 510.11566,340.01494 510.61221,345.23269 511.23393,350.07698 C 511.85552,354.92143 512.66293,359.70326 513.65612,364.42246 C 514.64919,369.14182 515.76743,373.98428 517.0108,378.9499 C 522.71935,399.57075 533.27613,409.88114 548.68117,409.88111 C 556.13337,409.88114 562.2817,407.39642 567.12618,402.42692 C 571.97045,397.4575 576.00741,389.63183 579.23712,378.9499 C 580.7229,373.98428 581.96431,369.20436 582.96137,364.61009 C 583.95817,360.01598 584.76557,355.23415 585.38356,350.26461 C 586.0013,345.29524 586.43532,340.01494 586.68563,334.42373 C 586.93568,328.83272 587.06076,322.4361 587.0609,315.23387 L 587.0609,315.23387 z "
   id="text7029" />

</svg>